<?xml version="1.0" encoding="UTF-8" standalone="no"?>
<svg width="60px" height="60px" viewBox="0 0 60 60" version="1.1" xmlns="http://www.w3.org/2000/svg" xmlns:xlink="http://www.w3.org/1999/xlink">
    <!-- Generator: Sketch 3.8.3 (29802) - http://www.bohemiancoding.com/sketch -->
    <title>icon_market copy 2</title>
    <desc>Created with Sketch.</desc>
    <defs></defs>
    <g id="Page-1" stroke="none" stroke-width="1" fill="none" fill-rule="evenodd">
        <g id="icon_market-copy-2">
            <g id="Page-1">
                <path d="M30,0 C13.431,0 0,13.431 0,30 C0,46.569 13.431,60 30,60 C46.569,60 60,46.569 60,30 C60,13.431 46.569,0 30,0" id="Fill-1" fill="#293A43"></path>
                <path d="M30,57 C37.364,57 44.036,54.048 48.908,49.268 L11.092,49.268 C15.964,54.048 22.636,57 30,57" id="Fill-3" fill="#FFFFFF"></path>
                <path d="M27.4605,12.0607 C26.0575,12.9337 24.7825,13.8737 23.9885,15.3197 C23.5065,16.1977 23.4705,16.8387 23.7805,17.9037 C23.2345,17.7357 22.7015,17.5767 22.1725,17.4037 C22.1145,17.3847 22.0615,17.2977 22.0395,17.2307 C21.4325,15.3917 20.0635,14.3537 18.3275,13.7127 C17.8545,13.5377 17.3575,13.4227 16.8265,13.2677 C16.8055,14.7357 16.9145,16.1167 17.7445,17.3247 C18.4185,18.3057 19.4025,18.5877 20.5395,18.4617 C20.6605,18.4487 20.7915,18.4527 20.8985,18.4037 C21.7485,18.0177 22.4945,18.3907 23.2355,18.7267 C25.5645,19.7867 27.1485,21.5937 28.3225,23.8367 C25.7715,24.4817 24.5795,26.3577 23.8305,28.7007 C25.1325,28.8527 26.3725,28.8537 27.5615,28.3517 C28.5065,27.9517 28.9305,27.4147 29.3525,26.1977 C29.5615,26.9377 29.7945,27.6717 29.9735,28.4197 C30.5655,30.8937 30.8095,33.4097 30.8725,35.9487 C30.8835,36.3647 30.7145,36.6657 30.4885,36.9757 C30.4625,36.9617 30.4245,36.9537 30.4115,36.9307 C29.3525,35.1287 27.7785,33.8577 26.1105,32.6637 C24.7955,31.7227 23.3075,31.2277 21.7885,30.7757 C21.2845,30.6267 20.7875,30.4547 20.2365,30.2777 C21.4745,29.1617 22.1495,27.8067 22.3355,26.2077 C22.4655,25.0947 22.2375,23.4107 21.8395,22.5597 C20.3835,23.4807 19.0025,24.4707 18.2595,26.0937 C17.6805,27.3577 18.0125,28.5947 19.1585,29.6837 C19.2215,29.7447 19.2875,29.8027 19.3525,29.8617 C19.3365,29.8887 19.3205,29.9147 19.3045,29.9417 C18.9245,29.7297 18.5335,29.5337 18.1665,29.3007 C17.7955,29.0657 17.4475,28.7937 17.0675,28.5217 C18.1105,26.1297 17.1825,24.2047 15.4815,22.4417 C14.5755,23.4727 13.7655,24.5167 13.4855,25.8677 C13.2745,26.8887 13.6105,27.7667 14.5025,28.2937 C15.0085,28.5927 15.5945,28.7567 16.1415,28.9877 C16.3215,29.0637 16.5055,29.1377 16.6665,29.2457 C17.4165,29.7477 18.1595,30.2617 18.9235,30.7837 C18.0285,30.9097 17.1475,31.1507 16.3275,31.5847 C15.4985,32.0237 14.7675,32.5877 14.1125,33.2647 C14.1335,33.2987 14.1445,33.3387 14.1675,33.3487 C15.5295,33.9597 16.9315,34.4177 18.4445,34.4187 C20.0885,34.4197 21.0675,33.6897 21.5555,32.1167 C21.5645,32.0867 21.5825,32.0597 21.6155,31.9907 C22.0205,32.1917 22.4195,32.3897 22.8295,32.5937 C22.2975,33.0277 21.7495,33.4077 21.2855,33.8727 C20.8125,34.3457 20.3575,34.8617 20.0095,35.4297 C19.2275,36.7077 19.3595,37.9367 20.3525,39.0607 C20.7075,39.4637 21.1375,39.8007 21.5635,40.1957 C23.8095,38.2537 24.2455,35.8407 23.6415,33.0647 C25.3105,34.1147 26.9395,35.1097 28.1535,36.6127 C28.6135,37.1817 28.5665,38.9417 28.5445,39.2267 C28.4425,40.5037 28.3195,53.6647 27.7395,56.1937 C27.6385,56.6307 27.6675,56.7807 28.0915,56.9057 C28.7665,57.1037 32.0355,56.9847 32.0885,56.7247 C32.5105,54.6517 31.2655,41.0767 31.7735,39.9777 C32.4065,38.6047 32.9705,37.1967 33.6635,35.8547 C34.2805,34.6567 35.2725,33.7897 36.5275,33.1927 C37.2935,35.2937 38.8435,36.6097 40.7975,37.5407 C41.2845,35.8527 40.4815,33.3897 39.0485,32.2067 C40.1815,31.8987 41.3055,31.7607 42.5105,31.7537 C42.4075,31.9197 42.3275,32.0457 42.2505,32.1727 C41.4535,33.4967 41.6755,34.6567 42.9275,35.5597 C43.9705,36.3127 45.1755,36.6657 46.4585,36.9237 C46.5215,34.7807 45.8465,33.0347 44.0355,31.8367 C44.5095,31.8367 44.9665,31.8257 45.4225,31.8447 C45.5415,31.8507 45.6615,31.9457 45.7725,32.0137 C47.5555,33.1067 49.8435,32.9437 51.6685,31.9607 C50.6475,30.8217 49.5855,29.7637 48.0105,29.4777 C47.1365,29.3187 46.4045,29.6617 45.8075,30.2997 C45.6575,30.4607 45.5255,30.6407 45.4215,30.7667 C44.3865,30.6617 43.3795,30.5597 42.3065,30.4507 C44.1905,29.6177 45.3095,28.1707 45.9095,26.1927 C45.4935,26.1927 45.1245,26.1837 44.7565,26.1947 C43.7785,26.2247 42.8165,26.3477 41.8995,26.7157 C40.3395,27.3427 39.7725,28.5157 40.2485,30.1237 C40.2825,30.2387 40.3195,30.3517 40.3495,30.4477 C39.3755,30.6127 38.4215,30.7737 37.4735,30.9337 C39.5685,28.7657 39.7375,26.2177 38.8675,23.4327 C38.7545,23.4947 38.6675,23.5357 38.5855,23.5867 C37.5635,24.2207 36.6265,24.9557 35.8805,25.9107 C34.5425,27.6227 34.6835,29.2317 36.2965,30.6807 C36.4745,30.8407 36.6615,30.9917 36.8835,31.1807 C35.1355,31.8327 33.7535,32.9447 32.4765,34.3067 C32.1675,30.1277 31.4145,26.1477 29.2075,22.5797 C31.1355,20.4987 32.0415,18.1197 31.7605,15.8067 C29.7445,16.7797 27.8425,17.8107 27.4305,20.3387 C27.0635,20.0237 26.6935,19.7067 26.2955,19.3657 C28.1875,17.1927 28.3085,14.7287 27.4605,12.0607" id="Fill-5" fill="#FFFFFF"></path>
            </g>
        </g>
    </g>
</svg>