<?xml version="1.0" encoding="UTF-8"?>
<svg width="746px" height="973px" viewBox="0 0 746 973" version="1.1" xmlns="http://www.w3.org/2000/svg" xmlns:xlink="http://www.w3.org/1999/xlink">
    <!-- Generator: Sketch 61 (89581) - https://sketch.com -->
    <title>MBM_badge_value_proposition</title>
    <desc>Created with Sketch.</desc>
    <g id="Page-1" stroke="none" stroke-width="1" fill="none" fill-rule="evenodd">
        <g id="Artboard" fill-rule="nonzero">
            <g id="MBM_badge_value_proposition">
                <path d="M37.7191026,124.026416 L352.044944,3.83680009 C365.547231,-1.27893336 380.452769,-1.27893336 393.955056,3.83680009 L708.280897,124.026416 C731.001605,132.719337 746,154.539 746,178.879179 L746,794.169496 C746,818.509675 731.001605,840.329338 708.280897,849.022259 L393.955056,969.128002 C380.461391,974.290666 365.538609,974.290666 352.044944,969.128002 L37.7191026,849.022259 C14.9983948,840.329338 0,818.509675 0,794.169496 L0,178.879179 C0,154.539 14.9983948,132.719337 37.7191026,124.026416 Z" id="Path" fill="#407AA5"></path>
                <path d="M59.2172038,141.758727 L373,25 L686.782796,141.758727 C709.755935,150.303228 725,172.230543 725,196.743455 L725,778.274 C725.037501,802.986152 709.588525,825.072766 686.363749,833.510182 L373,947 L59.6362513,833.510182 C36.4114751,825.072766 20.9624992,802.986152 21,778.274 L21,196.743455 C21,172.230543 36.2440649,150.303228 59.2172038,141.758727 Z" id="Path" fill="#6695B7"></path>
                <path d="M373,25 L373,947 L686.02855,835.270364 C709.414483,826.934807 725.02215,804.779699 725,779.950364 L725,192.133455 C724.986702,167.334867 709.385514,145.222511 686.02855,136.897273 L373,25 Z" id="Path" fill="#407AA5"></path>
                <path d="M532,889 L685.532409,835.578737 C709.195766,827.349979 725.030937,805.021241 724.96423,779.977014 L724.96423,207.774062 C725.26541,205.458226 723.631455,203.336814 721.314689,203.035755 C718.997924,202.734697 716.875661,204.367996 716.574481,206.683832 L532,889 Z" id="Path" fill="#305C7C"></path>
                <path d="M214,897 L60.4395246,835.31619 C36.7426037,827.082738 20.897893,804.725428 21,779.666667 L21,193 L214,897 Z" id="Path" fill="#407AA5"></path>
                <g id="Group" transform="translate(90.000000, 504.000000)" fill="#FFFFFF">
                    <path d="M190.12,79 L213.48,21.16 L204.8,21.16 C203.893333,21.16 203.133333,21.4133333 202.52,21.92 C201.906667,22.4266667 201.48,22.9866667 201.24,23.6 L201.24,23.6 L187.68,58.88 C186.773333,61.2266667 186.013333,63.9333333 185.4,67 C185.026667,65.48 184.633333,64.0333333 184.22,62.66 C183.806667,61.2866667 183.373333,60.0266667 182.92,58.88 L182.92,58.88 L169.32,23.6 C169.026667,22.88 168.586667,22.2933333 168,21.84 C167.413333,21.3866667 166.653333,21.16 165.72,21.16 L165.72,21.16 L157.04,21.16 L180.4,79 L190.12,79 Z M215.52,79 C216.426667,79 217.193333,78.7466667 217.82,78.24 C218.446667,77.7333333 218.866667,77.1733333 219.08,76.56 L219.08,76.56 L223.4,64.76 L247.36,64.76 L251.68,76.56 C251.946667,77.2533333 252.38,77.8333333 252.98,78.3 C253.58,78.7666667 254.346667,79 255.28,79 L255.28,79 L263.6,79 L240.88,21.16 L229.88,21.16 L207.16,79 L215.52,79 Z M244.6,57.16 L226.16,57.16 L233.2,38 C233.546667,37.12 233.9,36.0933333 234.26,34.92 C234.62,33.7466667 234.986667,32.48 235.36,31.12 C235.733333,32.48 236.113333,33.74 236.5,34.9 C236.886667,36.06 237.24,37.0666667 237.56,37.92 L237.56,37.92 L244.6,57.16 Z M303.48,79 L303.48,70.12 L280.32,70.12 L280.32,21.16 L269.56,21.16 L269.56,79 L303.48,79 Z M334.2,79.64 C337.906667,79.64 341.24,79.0466667 344.2,77.86 C347.16,76.6733333 349.68,75.02 351.76,72.9 C353.84,70.78 355.433333,68.26 356.54,65.34 C357.646667,62.42 358.2,59.24 358.2,55.8 L358.2,55.8 L358.2,21.16 L347.44,21.16 L347.44,55.8 C347.44,58.0133333 347.14,60.0133333 346.54,61.8 C345.94,63.5866667 345.073333,65.1066667 343.94,66.36 C342.806667,67.6133333 341.42,68.5866667 339.78,69.28 C338.14,69.9733333 336.28,70.32 334.2,70.32 C332.12,70.32 330.26,69.9733333 328.62,69.28 C326.98,68.5866667 325.6,67.6066667 324.48,66.34 C323.36,65.0733333 322.5,63.5466667 321.9,61.76 C321.3,59.9733333 321,57.9733333 321,55.76 L321,55.76 L321,21.16 L310.24,21.16 L310.24,55.8 C310.24,59.24 310.793333,62.42 311.9,65.34 C313.006667,68.26 314.593333,70.78 316.66,72.9 C318.726667,75.02 321.24,76.6733333 324.2,77.86 C327.16,79.0466667 330.493333,79.64 334.2,79.64 Z M405.64,79 L405.64,70.4 L380,70.4 L380,54.04 L400.2,54.04 L400.2,45.76 L380,45.76 L380,29.72 L405.64,29.72 L405.64,21.16 L369.16,21.16 L369.16,79 L405.64,79 Z M28.16,175 L28.16,154.64 L36.24,154.64 C40,154.64 43.28,154.173333 46.08,153.24 C48.88,152.306667 51.2133333,151 53.08,149.32 C54.9466667,147.64 56.3466667,145.633333 57.28,143.3 C58.2133333,140.966667 58.68,138.4 58.68,135.6 C58.68,132.906667 58.24,130.426667 57.36,128.16 C56.48,125.893333 55.12,123.946667 53.28,122.32 C51.44,120.693333 49.1066667,119.426667 46.28,118.52 C43.4533333,117.613333 40.1066667,117.16 36.24,117.16 L36.24,117.16 L17.4,117.16 L17.4,175 L28.16,175 Z M36.24,146.24 L28.16,146.24 L28.16,125.48 L36.24,125.48 C38.2133333,125.48 39.9333333,125.713333 41.4,126.18 C42.8666667,126.646667 44.08,127.32 45.04,128.2 C46,129.08 46.72,130.146667 47.2,131.4 C47.68,132.653333 47.92,134.053333 47.92,135.6 C47.92,137.226667 47.68,138.7 47.2,140.02 C46.72,141.34 46,142.46 45.04,143.38 C44.08,144.3 42.8666667,145.006667 41.4,145.5 C39.9333333,145.993333 38.2133333,146.24 36.24,146.24 L36.24,146.24 Z M78.16,175 L78.16,152.4 L82.76,152.4 C83.8266667,152.4 84.6333333,152.546667 85.18,152.84 C85.7266667,153.133333 86.2266667,153.626667 86.68,154.32 L86.68,154.32 L98.84,172.84 C99.2933333,173.533333 99.8466667,174.066667 100.5,174.44 C101.153333,174.813333 101.946667,175 102.88,175 L102.88,175 L112.56,175 L98.08,153.64 C97.0933333,152.2 95.92,151.093333 94.56,150.32 C96.5866667,149.68 98.3933333,148.826667 99.98,147.76 C101.566667,146.693333 102.9,145.453333 103.98,144.04 C105.06,142.626667 105.886667,141.053333 106.46,139.32 C107.033333,137.586667 107.32,135.746667 107.32,133.8 C107.32,131.346667 106.9,129.1 106.06,127.06 C105.22,125.02 103.9,123.266667 102.1,121.8 C100.3,120.333333 97.9933333,119.193333 95.18,118.38 C92.3666667,117.566667 88.9866667,117.16 85.04,117.16 L85.04,117.16 L67.4,117.16 L67.4,175 L78.16,175 Z M84.88,144.68 L78.16,144.68 L78.16,125.48 L85.04,125.48 C89.0133333,125.48 91.9666667,126.266667 93.9,127.84 C95.8333333,129.413333 96.8,131.666667 96.8,134.6 C96.8,136.066667 96.56,137.413333 96.08,138.64 C95.6,139.866667 94.8733333,140.926667 93.9,141.82 C92.9266667,142.713333 91.6866667,143.413333 90.18,143.92 C88.6733333,144.426667 86.9066667,144.68 84.88,144.68 L84.88,144.68 Z M143.72,175.64 C148.093333,175.64 152.08,174.9 155.68,173.42 C159.28,171.94 162.36,169.88 164.92,167.24 C167.48,164.6 169.466667,161.473333 170.88,157.86 C172.293333,154.246667 173,150.32 173,146.08 C173,141.84 172.293333,137.913333 170.88,134.3 C169.466667,130.686667 167.48,127.566667 164.92,124.94 C162.36,122.313333 159.28,120.253333 155.68,118.76 C152.08,117.266667 148.093333,116.52 143.72,116.52 C139.346667,116.52 135.353333,117.26 131.74,118.74 C128.126667,120.22 125.033333,122.28 122.46,124.92 C119.886667,127.56 117.893333,130.686667 116.48,134.3 C115.066667,137.913333 114.36,141.84 114.36,146.08 C114.36,150.32 115.066667,154.246667 116.48,157.86 C117.893333,161.473333 119.886667,164.6 122.46,167.24 C125.033333,169.88 128.126667,171.94 131.74,173.42 C135.353333,174.9 139.346667,175.64 143.72,175.64 Z M143.72,166.44 C140.893333,166.44 138.346667,165.973333 136.08,165.04 C133.813333,164.106667 131.886667,162.766667 130.3,161.02 C128.713333,159.273333 127.493333,157.14 126.64,154.62 C125.786667,152.1 125.36,149.253333 125.36,146.08 C125.36,142.906667 125.786667,140.06 126.64,137.54 C127.493333,135.02 128.713333,132.88 130.3,131.12 C131.886667,129.36 133.813333,128.013333 136.08,127.08 C138.346667,126.146667 140.893333,125.68 143.72,125.68 C146.546667,125.68 149.086667,126.146667 151.34,127.08 C153.593333,128.013333 155.506667,129.36 157.08,131.12 C158.653333,132.88 159.86,135.02 160.7,137.54 C161.54,140.06 161.96,142.906667 161.96,146.08 C161.96,149.253333 161.54,152.1 160.7,154.62 C159.86,157.14 158.653333,159.273333 157.08,161.02 C155.506667,162.766667 153.593333,164.106667 151.34,165.04 C149.086667,165.973333 146.546667,166.44 143.72,166.44 Z M192.6,175 L192.6,154.64 L200.68,154.64 C204.44,154.64 207.72,154.173333 210.52,153.24 C213.32,152.306667 215.653333,151 217.52,149.32 C219.386667,147.64 220.786667,145.633333 221.72,143.3 C222.653333,140.966667 223.12,138.4 223.12,135.6 C223.12,132.906667 222.68,130.426667 221.8,128.16 C220.92,125.893333 219.56,123.946667 217.72,122.32 C215.88,120.693333 213.546667,119.426667 210.72,118.52 C207.893333,117.613333 204.546667,117.16 200.68,117.16 L200.68,117.16 L181.84,117.16 L181.84,175 L192.6,175 Z M200.68,146.24 L192.6,146.24 L192.6,125.48 L200.68,125.48 C202.653333,125.48 204.373333,125.713333 205.84,126.18 C207.306667,126.646667 208.52,127.32 209.48,128.2 C210.44,129.08 211.16,130.146667 211.64,131.4 C212.12,132.653333 212.36,134.053333 212.36,135.6 C212.36,137.226667 212.12,138.7 211.64,140.02 C211.16,141.34 210.44,142.46 209.48,143.38 C208.52,144.3 207.306667,145.006667 205.84,145.5 C204.373333,145.993333 202.653333,146.24 200.68,146.24 L200.68,146.24 Z M257.68,175.64 C262.053333,175.64 266.04,174.9 269.64,173.42 C273.24,171.94 276.32,169.88 278.88,167.24 C281.44,164.6 283.426667,161.473333 284.84,157.86 C286.253333,154.246667 286.96,150.32 286.96,146.08 C286.96,141.84 286.253333,137.913333 284.84,134.3 C283.426667,130.686667 281.44,127.566667 278.88,124.94 C276.32,122.313333 273.24,120.253333 269.64,118.76 C266.04,117.266667 262.053333,116.52 257.68,116.52 C253.306667,116.52 249.313333,117.26 245.7,118.74 C242.086667,120.22 238.993333,122.28 236.42,124.92 C233.846667,127.56 231.853333,130.686667 230.44,134.3 C229.026667,137.913333 228.32,141.84 228.32,146.08 C228.32,150.32 229.026667,154.246667 230.44,157.86 C231.853333,161.473333 233.846667,164.6 236.42,167.24 C238.993333,169.88 242.086667,171.94 245.7,173.42 C249.313333,174.9 253.306667,175.64 257.68,175.64 Z M257.68,166.44 C254.853333,166.44 252.306667,165.973333 250.04,165.04 C247.773333,164.106667 245.846667,162.766667 244.26,161.02 C242.673333,159.273333 241.453333,157.14 240.6,154.62 C239.746667,152.1 239.32,149.253333 239.32,146.08 C239.32,142.906667 239.746667,140.06 240.6,137.54 C241.453333,135.02 242.673333,132.88 244.26,131.12 C245.846667,129.36 247.773333,128.013333 250.04,127.08 C252.306667,126.146667 254.853333,125.68 257.68,125.68 C260.506667,125.68 263.046667,126.146667 265.3,127.08 C267.553333,128.013333 269.466667,129.36 271.04,131.12 C272.613333,132.88 273.82,135.02 274.66,137.54 C275.5,140.06 275.92,142.906667 275.92,146.08 C275.92,149.253333 275.5,152.1 274.66,154.62 C273.82,157.14 272.613333,159.273333 271.04,161.02 C269.466667,162.766667 267.553333,164.106667 265.3,165.04 C263.046667,165.973333 260.506667,166.44 257.68,166.44 Z M310.04,175.64 C313.24,175.64 316.08,175.153333 318.56,174.18 C321.04,173.206667 323.14,171.873333 324.86,170.18 C326.58,168.486667 327.886667,166.5 328.78,164.22 C329.673333,161.94 330.12,159.493333 330.12,156.88 C330.12,154.48 329.74,152.44 328.98,150.76 C328.22,149.08 327.213333,147.66 325.96,146.5 C324.706667,145.34 323.28,144.38 321.68,143.62 C320.08,142.86 318.446667,142.193333 316.78,141.62 C315.113333,141.046667 313.48,140.506667 311.88,140 C310.28,139.493333 308.853333,138.92 307.6,138.28 C306.346667,137.64 305.34,136.866667 304.58,135.96 C303.82,135.053333 303.44,133.92 303.44,132.56 C303.44,131.493333 303.626667,130.513333 304,129.62 C304.373333,128.726667 304.94,127.96 305.7,127.32 C306.46,126.68 307.393333,126.18 308.5,125.82 C309.606667,125.46 310.906667,125.28 312.4,125.28 C314.053333,125.28 315.486667,125.486667 316.7,125.9 C317.913333,126.313333 318.973333,126.773333 319.88,127.28 C320.786667,127.786667 321.573333,128.246667 322.24,128.66 C322.906667,129.073333 323.506667,129.28 324.04,129.28 C324.573333,129.28 325.033333,129.16 325.42,128.92 C325.806667,128.68 326.146667,128.266667 326.44,127.68 L326.44,127.68 L329.08,122.6 C327.053333,120.68 324.6,119.186667 321.72,118.12 C318.84,117.053333 315.693333,116.52 312.28,116.52 C309.266667,116.52 306.586667,116.986667 304.24,117.92 C301.893333,118.853333 299.913333,120.093333 298.3,121.64 C296.686667,123.186667 295.46,124.96 294.62,126.96 C293.78,128.96 293.36,131.013333 293.36,133.12 C293.36,135.76 293.74,137.98 294.5,139.78 C295.26,141.58 296.266667,143.08 297.52,144.28 C298.773333,145.48 300.2,146.453333 301.8,147.2 C303.4,147.946667 305.026667,148.586667 306.68,149.12 C308.333333,149.653333 309.96,150.146667 311.56,150.6 C313.16,151.053333 314.586667,151.606667 315.84,152.26 C317.093333,152.913333 318.1,153.72 318.86,154.68 C319.62,155.64 320,156.88 320,158.4 C320,161.12 319.16,163.206667 317.48,164.66 C315.8,166.113333 313.426667,166.84 310.36,166.84 C308.36,166.84 306.646667,166.566667 305.22,166.02 C303.793333,165.473333 302.553333,164.866667 301.5,164.2 C300.446667,163.533333 299.533333,162.926667 298.76,162.38 C297.986667,161.833333 297.266667,161.56 296.6,161.56 C296.093333,161.56 295.633333,161.686667 295.22,161.94 C294.806667,162.193333 294.453333,162.506667 294.16,162.88 L294.16,162.88 L291.04,168.04 C292.16,169.186667 293.433333,170.226667 294.86,171.16 C296.286667,172.093333 297.82,172.893333 299.46,173.56 C301.1,174.226667 302.813333,174.74 304.6,175.1 C306.386667,175.46 308.2,175.64 310.04,175.64 Z M350.48,175 L350.48,117.16 L339.68,117.16 L339.68,175 L350.48,175 Z M386.84,175 L386.84,126 L404.24,126 L404.24,117.16 L358.6,117.16 L358.6,126 L376.08,126 L376.08,175 L386.84,175 Z M423.2,175 L423.2,117.16 L412.4,117.16 L412.4,175 L423.2,175 Z M462.4,175.64 C466.773333,175.64 470.76,174.9 474.36,173.42 C477.96,171.94 481.04,169.88 483.6,167.24 C486.16,164.6 488.146667,161.473333 489.56,157.86 C490.973333,154.246667 491.68,150.32 491.68,146.08 C491.68,141.84 490.973333,137.913333 489.56,134.3 C488.146667,130.686667 486.16,127.566667 483.6,124.94 C481.04,122.313333 477.96,120.253333 474.36,118.76 C470.76,117.266667 466.773333,116.52 462.4,116.52 C458.026667,116.52 454.033333,117.26 450.42,118.74 C446.806667,120.22 443.713333,122.28 441.14,124.92 C438.566667,127.56 436.573333,130.686667 435.16,134.3 C433.746667,137.913333 433.04,141.84 433.04,146.08 C433.04,150.32 433.746667,154.246667 435.16,157.86 C436.573333,161.473333 438.566667,164.6 441.14,167.24 C443.713333,169.88 446.806667,171.94 450.42,173.42 C454.033333,174.9 458.026667,175.64 462.4,175.64 Z M462.4,166.44 C459.573333,166.44 457.026667,165.973333 454.76,165.04 C452.493333,164.106667 450.566667,162.766667 448.98,161.02 C447.393333,159.273333 446.173333,157.14 445.32,154.62 C444.466667,152.1 444.04,149.253333 444.04,146.08 C444.04,142.906667 444.466667,140.06 445.32,137.54 C446.173333,135.02 447.393333,132.88 448.98,131.12 C450.566667,129.36 452.493333,128.013333 454.76,127.08 C457.026667,126.146667 459.573333,125.68 462.4,125.68 C465.226667,125.68 467.766667,126.146667 470.02,127.08 C472.273333,128.013333 474.186667,129.36 475.76,131.12 C477.333333,132.88 478.54,135.02 479.38,137.54 C480.22,140.06 480.64,142.906667 480.64,146.08 C480.64,149.253333 480.22,152.1 479.38,154.62 C478.54,157.14 477.333333,159.273333 475.76,161.02 C474.186667,162.766667 472.273333,164.106667 470.02,165.04 C467.766667,165.973333 465.226667,166.44 462.4,166.44 Z M509.64,175 L509.64,139.48 C509.64,138.786667 509.62,138.02 509.58,137.18 C509.54,136.34 509.48,135.493333 509.4,134.64 L509.4,134.64 L539.64,173.16 C540.173333,173.853333 540.72,174.333333 541.28,174.6 C541.84,174.866667 542.546667,175 543.4,175 L543.4,175 L548.96,175 L548.96,117.16 L539.48,117.16 L539.48,152.32 C539.48,153.093333 539.5,153.926667 539.54,154.82 C539.58,155.713333 539.653333,156.626667 539.76,157.56 L539.76,157.56 L509.4,118.88 C509.106667,118.506667 508.84,118.206667 508.6,117.98 C508.36,117.753333 508.113333,117.58 507.86,117.46 C507.606667,117.34 507.32,117.26 507,117.22 C506.68,117.18 506.28,117.16 505.8,117.16 L505.8,117.16 L500.16,117.16 L500.16,175 L509.64,175 Z" id="VALUEPROPOSITION"></path>
                </g>
            </g>
        </g>
    </g>
</svg>