<?xml version="1.0" encoding="UTF-8"?>
<svg width="746px" height="973px" viewBox="0 0 746 973" version="1.1" xmlns="http://www.w3.org/2000/svg" xmlns:xlink="http://www.w3.org/1999/xlink">
    <!-- Generator: Sketch 61 (89581) - https://sketch.com -->
    <title>MBM_badge_human_capital</title>
    <desc>Created with Sketch.</desc>
    <g id="Page-1" stroke="none" stroke-width="1" fill="none" fill-rule="evenodd">
        <g id="Artboard" fill-rule="nonzero">
            <g id="MBM_badge_human_capital">
                <path d="M37.7191026,124.026416 L352.044944,3.83680009 C365.547231,-1.27893336 380.452769,-1.27893336 393.955056,3.83680009 L708.280897,124.026416 C731.001605,132.719337 746,154.539 746,178.879179 L746,794.169496 C746,818.509675 731.001605,840.329338 708.280897,849.022259 L393.955056,969.128002 C380.461391,974.290666 365.538609,974.290666 352.044944,969.128002 L37.7191026,849.022259 C14.9983948,840.329338 0,818.509675 0,794.169496 L0,178.879179 C0,154.539 14.9983948,132.719337 37.7191026,124.026416 Z" id="Path" fill="#D15092"></path>
                <path d="M59.2172038,141.758727 L373,25 L686.782796,141.758727 C709.755935,150.303228 725,172.230543 725,196.743455 L725,778.274 C725.037501,802.986152 709.588525,825.072766 686.363749,833.510182 L373,947 L59.6362513,833.510182 C36.4114751,825.072766 20.9624992,802.986152 21,778.274 L21,196.743455 C21,172.230543 36.2440649,150.303228 59.2172038,141.758727 Z" id="Path" fill="#DA73A8"></path>
                <path d="M373,25 L373,947 L686.02855,835.270364 C709.414483,826.934807 725.02215,804.779699 725,779.950364 L725,192.133455 C724.986702,167.334867 709.385514,145.222511 686.02855,136.897273 L373,25 Z" id="Path" fill="#D15092"></path>
                <path d="M532,889 L685.532409,835.578737 C709.195766,827.349979 725.030937,805.021241 724.96423,779.977014 L724.96423,207.774062 C725.26541,205.458226 723.631455,203.336814 721.314689,203.035755 C718.997924,202.734697 716.875661,204.367996 716.574481,206.683832 L532,889 Z" id="Path" fill="#9D3C6E"></path>
                <path d="M214,897 L60.4395246,835.31619 C36.7426037,827.082738 20.897893,804.725428 21,779.666667 L21,193 L214,897 Z" id="Path" fill="#D15092"></path>
                <path d="M234.48,583 L234.48,557.72 L261.6,557.72 L261.6,583 L272.44,583 L272.44,525.16 L261.6,525.16 L261.6,550.04 L234.48,550.04 L234.48,525.16 L223.64,525.16 L223.64,583 L234.48,583 Z M307.4,583.64 C311.106667,583.64 314.44,583.046667 317.4,581.86 C320.36,580.673333 322.88,579.02 324.96,576.9 C327.04,574.78 328.633333,572.26 329.74,569.34 C330.846667,566.42 331.4,563.24 331.4,559.8 L331.4,559.8 L331.4,525.16 L320.64,525.16 L320.64,559.8 C320.64,562.013333 320.34,564.013333 319.74,565.8 C319.14,567.586667 318.273333,569.106667 317.14,570.36 C316.006667,571.613333 314.62,572.586667 312.98,573.28 C311.34,573.973333 309.48,574.32 307.4,574.32 C305.32,574.32 303.46,573.973333 301.82,573.28 C300.18,572.586667 298.8,571.606667 297.68,570.34 C296.56,569.073333 295.7,567.546667 295.1,565.76 C294.5,563.973333 294.2,561.973333 294.2,559.76 L294.2,559.76 L294.2,525.16 L283.44,525.16 L283.44,559.8 C283.44,563.24 283.993333,566.42 285.1,569.34 C286.206667,572.26 287.793333,574.78 289.86,576.9 C291.926667,579.02 294.44,580.673333 297.4,581.86 C300.36,583.046667 303.693333,583.64 307.4,583.64 Z M351.84,583 L351.84,545.64 C351.84,544.92 351.82,544.14 351.78,543.3 C351.74,542.46 351.666667,541.6 351.56,540.72 L351.56,540.72 L369.28,573.64 C369.68,574.386667 370.2,574.966667 370.84,575.38 C371.48,575.793333 372.226667,576 373.08,576 L373.08,576 L374.56,576 C375.413333,576 376.16,575.793333 376.8,575.38 C377.44,574.966667 377.96,574.386667 378.36,573.64 L378.36,573.64 L395.84,540.84 C395.76,541.693333 395.7,542.533333 395.66,543.36 C395.62,544.186667 395.6,544.946667 395.6,545.64 L395.6,545.64 L395.6,583 L405.08,583 L405.08,525.16 L396.96,525.16 C396.48,525.16 396.066667,525.173333 395.72,525.2 C395.373333,525.226667 395.06,525.293333 394.78,525.4 C394.5,525.506667 394.246667,525.68 394.02,525.92 C393.793333,526.16 393.573333,526.48 393.36,526.88 L393.36,526.88 L376.24,558.92 C375.786667,559.773333 375.36,560.666667 374.96,561.6 C374.56,562.533333 374.173333,563.48 373.8,564.44 C373.426667,563.506667 373.046667,562.58 372.66,561.66 C372.273333,560.74 371.853333,559.853333 371.4,559 L371.4,559 L354.12,526.88 C353.906667,526.48 353.68,526.16 353.44,525.92 C353.2,525.68 352.94,525.506667 352.66,525.4 C352.38,525.293333 352.066667,525.226667 351.72,525.2 C351.373333,525.173333 350.96,525.16 350.48,525.16 L350.48,525.16 L342.36,525.16 L342.36,583 L351.84,583 Z M419.52,583 C420.426667,583 421.193333,582.746667 421.82,582.24 C422.446667,581.733333 422.866667,581.173333 423.08,580.56 L423.08,580.56 L427.4,568.76 L451.36,568.76 L455.68,580.56 C455.946667,581.253333 456.38,581.833333 456.98,582.3 C457.58,582.766667 458.346667,583 459.28,583 L459.28,583 L467.6,583 L444.88,525.16 L433.88,525.16 L411.16,583 L419.52,583 Z M448.6,561.16 L430.16,561.16 L437.2,542 C437.546667,541.12 437.9,540.093333 438.26,538.92 C438.62,537.746667 438.986667,536.48 439.36,535.12 C439.733333,536.48 440.113333,537.74 440.5,538.9 C440.886667,540.06 441.24,541.066667 441.56,541.92 L441.56,541.92 L448.6,561.16 Z M483.04,583 L483.04,547.48 C483.04,546.786667 483.02,546.02 482.98,545.18 C482.94,544.34 482.88,543.493333 482.8,542.64 L482.8,542.64 L513.04,581.16 C513.573333,581.853333 514.12,582.333333 514.68,582.6 C515.24,582.866667 515.946667,583 516.8,583 L516.8,583 L522.36,583 L522.36,525.16 L512.88,525.16 L512.88,560.32 C512.88,561.093333 512.9,561.926667 512.94,562.82 C512.98,563.713333 513.053333,564.626667 513.16,565.56 L513.16,565.56 L482.8,526.88 C482.506667,526.506667 482.24,526.206667 482,525.98 C481.76,525.753333 481.513333,525.58 481.26,525.46 C481.006667,525.34 480.72,525.26 480.4,525.22 C480.08,525.18 479.68,525.16 479.2,525.16 L479.2,525.16 L473.56,525.16 L473.56,583 L483.04,583 Z M240.64,679.64 C245.44,679.64 249.553333,678.866667 252.98,677.32 C256.406667,675.773333 259.293333,673.546667 261.64,670.64 L261.64,670.64 L257.4,666.04 C256.973333,665.586667 256.466667,665.36 255.88,665.36 C255.533333,665.36 255.213333,665.433333 254.92,665.58 C254.626667,665.726667 254.346667,665.92 254.08,666.16 C253.2,666.96 252.313333,667.633333 251.42,668.18 C250.526667,668.726667 249.58,669.173333 248.58,669.52 C247.58,669.866667 246.486667,670.12 245.3,670.28 C244.113333,670.44 242.786667,670.52 241.32,670.52 C238.866667,670.52 236.573333,670.06 234.44,669.14 C232.306667,668.22 230.453333,666.893333 228.88,665.16 C227.306667,663.426667 226.06,661.293333 225.14,658.76 C224.22,656.226667 223.76,653.333333 223.76,650.08 C223.76,646.933333 224.22,644.1 225.14,641.58 C226.06,639.06 227.34,636.92 228.98,635.16 C230.62,633.4 232.58,632.046667 234.86,631.1 C237.14,630.153333 239.64,629.68 242.36,629.68 C244.68,629.68 246.593333,629.92 248.1,630.4 C249.606667,630.88 250.853333,631.4 251.84,631.96 C252.826667,632.52 253.64,633.04 254.28,633.52 C254.92,634 255.546667,634.24 256.16,634.24 C256.746667,634.24 257.206667,634.12 257.54,633.88 C257.873333,633.64 258.146667,633.36 258.36,633.04 L258.36,633.04 L261.96,628.04 C259.666667,625.773333 256.913333,623.953333 253.7,622.58 C250.486667,621.206667 246.733333,620.52 242.44,620.52 C238.04,620.52 234.02,621.246667 230.38,622.7 C226.74,624.153333 223.613333,626.186667 221,628.8 C218.386667,631.413333 216.36,634.526667 214.92,638.14 C213.48,641.753333 212.76,645.733333 212.76,650.08 C212.76,654.373333 213.406667,658.333333 214.7,661.96 C215.993333,665.586667 217.853333,668.706667 220.28,671.32 C222.706667,673.933333 225.633333,675.973333 229.06,677.44 C232.486667,678.906667 236.346667,679.64 240.64,679.64 Z M272.52,679 C273.426667,679 274.193333,678.746667 274.82,678.24 C275.446667,677.733333 275.866667,677.173333 276.08,676.56 L276.08,676.56 L280.4,664.76 L304.36,664.76 L308.68,676.56 C308.946667,677.253333 309.38,677.833333 309.98,678.3 C310.58,678.766667 311.346667,679 312.28,679 L312.28,679 L320.6,679 L297.88,621.16 L286.88,621.16 L264.16,679 L272.52,679 Z M301.6,657.16 L283.16,657.16 L290.2,638 C290.546667,637.12 290.9,636.093333 291.26,634.92 C291.62,633.746667 291.986667,632.48 292.36,631.12 C292.733333,632.48 293.113333,633.74 293.5,634.9 C293.886667,636.06 294.24,637.066667 294.56,637.92 L294.56,637.92 L301.6,657.16 Z M337.68,679 L337.68,658.64 L345.76,658.64 C349.52,658.64 352.8,658.173333 355.6,657.24 C358.4,656.306667 360.733333,655 362.6,653.32 C364.466667,651.64 365.866667,649.633333 366.8,647.3 C367.733333,644.966667 368.2,642.4 368.2,639.6 C368.2,636.906667 367.76,634.426667 366.88,632.16 C366,629.893333 364.64,627.946667 362.8,626.32 C360.96,624.693333 358.626667,623.426667 355.8,622.52 C352.973333,621.613333 349.626667,621.16 345.76,621.16 L345.76,621.16 L326.92,621.16 L326.92,679 L337.68,679 Z M345.76,650.24 L337.68,650.24 L337.68,629.48 L345.76,629.48 C347.733333,629.48 349.453333,629.713333 350.92,630.18 C352.386667,630.646667 353.6,631.32 354.56,632.2 C355.52,633.08 356.24,634.146667 356.72,635.4 C357.2,636.653333 357.44,638.053333 357.44,639.6 C357.44,641.226667 357.2,642.7 356.72,644.02 C356.24,645.34 355.52,646.46 354.56,647.38 C353.6,648.3 352.386667,649.006667 350.92,649.5 C349.453333,649.993333 347.733333,650.24 345.76,650.24 L345.76,650.24 Z M388.68,679 L388.68,621.16 L377.88,621.16 L377.88,679 L388.68,679 Z M425.04,679 L425.04,630 L442.44,630 L442.44,621.16 L396.8,621.16 L396.8,630 L414.28,630 L414.28,679 L425.04,679 Z M446.16,679 C447.066667,679 447.833333,678.746667 448.46,678.24 C449.086667,677.733333 449.506667,677.173333 449.72,676.56 L449.72,676.56 L454.04,664.76 L478,664.76 L482.32,676.56 C482.586667,677.253333 483.02,677.833333 483.62,678.3 C484.22,678.766667 484.986667,679 485.92,679 L485.92,679 L494.24,679 L471.52,621.16 L460.52,621.16 L437.8,679 L446.16,679 Z M475.24,657.16 L456.8,657.16 L463.84,638 C464.186667,637.12 464.54,636.093333 464.9,634.92 C465.26,633.746667 465.626667,632.48 466,631.12 C466.373333,632.48 466.753333,633.74 467.14,634.9 C467.526667,636.06 467.88,637.066667 468.2,637.92 L468.2,637.92 L475.24,657.16 Z M534.12,679 L534.12,670.12 L510.96,670.12 L510.96,621.16 L500.2,621.16 L500.2,679 L534.12,679 Z" id="HUMANCAPITAL" fill="#FFFFFF"></path>
            </g>
        </g>
    </g>
</svg>