<?xml version="1.0" encoding="UTF-8"?>
<svg width="746px" height="973px" viewBox="0 0 746 973" version="1.1" xmlns="http://www.w3.org/2000/svg" xmlns:xlink="http://www.w3.org/1999/xlink">
    <!-- Generator: Sketch 61 (89581) - https://sketch.com -->
    <title>MBM_badge_competitors</title>
    <desc>Created with Sketch.</desc>
    <g id="Page-1" stroke="none" stroke-width="1" fill="none" fill-rule="evenodd">
        <g id="Artboard" fill-rule="nonzero">
            <g id="MBM_badge_competitors">
                <path d="M37.7191026,124.026416 L352.044944,3.83680009 C365.547231,-1.27893336 380.452769,-1.27893336 393.955056,3.83680009 L708.280897,124.026416 C731.001605,132.719337 746,154.539 746,178.879179 L746,794.169496 C746,818.509675 731.001605,840.329338 708.280897,849.022259 L393.955056,969.128002 C380.461391,974.290666 365.538609,974.290666 352.044944,969.128002 L37.7191026,849.022259 C14.9983948,840.329338 0,818.509675 0,794.169496 L0,178.879179 C0,154.539 14.9983948,132.719337 37.7191026,124.026416 Z" id="Path" fill="#D36F26"></path>
                <path d="M59.2172038,141.758727 L373,25 L686.782796,141.758727 C709.755935,150.303228 725,172.230543 725,196.743455 L725,778.274 C725.037501,802.986152 709.588525,825.072766 686.363749,833.510182 L373,947 L59.6362513,833.510182 C36.4114751,825.072766 20.9624992,802.986152 21,778.274 L21,196.743455 C21,172.230543 36.2440649,150.303228 59.2172038,141.758727 Z" id="Path" fill="#DC8C51"></path>
                <path d="M372,25 L372,947 L685.917836,835.270364 C709.370206,826.934807 725.022213,804.779699 725,779.950364 L725,192.133455 C724.986664,167.334867 709.341155,145.222511 685.917836,136.897273 L372,25 Z" id="Path" fill="#D36F26"></path>
                <path d="M532,889 L685.532409,835.578737 C709.195766,827.349979 725.030937,805.021241 724.96423,779.977014 L724.96423,207.774062 C725.26541,205.458226 723.631455,203.336814 721.314689,203.035755 C718.997924,202.734697 716.875661,204.367996 716.574481,206.683832 L532,889 Z" id="Path" fill="#9E531C"></path>
                <path d="M214,897 L60.4395246,835.228571 C36.7426037,826.983424 20.897893,804.594356 21,779.5 L21,192 L214,897 Z" id="Path" fill="#D36F26"></path>
                <path d="M121.22,583.64 C126.02,583.64 130.133333,582.866667 133.56,581.32 C136.986667,579.773333 139.873333,577.546667 142.22,574.64 L142.22,574.64 L137.98,570.04 C137.553333,569.586667 137.046667,569.36 136.46,569.36 C136.113333,569.36 135.793333,569.433333 135.5,569.58 C135.206667,569.726667 134.926667,569.92 134.66,570.16 C133.78,570.96 132.893333,571.633333 132,572.18 C131.106667,572.726667 130.16,573.173333 129.16,573.52 C128.16,573.866667 127.066667,574.12 125.88,574.28 C124.693333,574.44 123.366667,574.52 121.9,574.52 C119.446667,574.52 117.153333,574.06 115.02,573.14 C112.886667,572.22 111.033333,570.893333 109.46,569.16 C107.886667,567.426667 106.64,565.293333 105.72,562.76 C104.8,560.226667 104.34,557.333333 104.34,554.08 C104.34,550.933333 104.8,548.1 105.72,545.58 C106.64,543.06 107.92,540.92 109.56,539.16 C111.2,537.4 113.16,536.046667 115.44,535.1 C117.72,534.153333 120.22,533.68 122.94,533.68 C125.26,533.68 127.173333,533.92 128.68,534.4 C130.186667,534.88 131.433333,535.4 132.42,535.96 C133.406667,536.52 134.22,537.04 134.86,537.52 C135.5,538 136.126667,538.24 136.74,538.24 C137.326667,538.24 137.786667,538.12 138.12,537.88 C138.453333,537.64 138.726667,537.36 138.94,537.04 L138.94,537.04 L142.54,532.04 C140.246667,529.773333 137.493333,527.953333 134.28,526.58 C131.066667,525.206667 127.313333,524.52 123.02,524.52 C118.62,524.52 114.6,525.246667 110.96,526.7 C107.32,528.153333 104.193333,530.186667 101.58,532.8 C98.9666667,535.413333 96.94,538.526667 95.5,542.14 C94.06,545.753333 93.34,549.733333 93.34,554.08 C93.34,558.373333 93.9866667,562.333333 95.28,565.96 C96.5733333,569.586667 98.4333333,572.706667 100.86,575.32 C103.286667,577.933333 106.213333,579.973333 109.64,581.44 C113.066667,582.906667 116.926667,583.64 121.22,583.64 Z M176.54,583.64 C180.913333,583.64 184.9,582.9 188.5,581.42 C192.1,579.94 195.18,577.88 197.74,575.24 C200.3,572.6 202.286667,569.473333 203.7,565.86 C205.113333,562.246667 205.82,558.32 205.82,554.08 C205.82,549.84 205.113333,545.913333 203.7,542.3 C202.286667,538.686667 200.3,535.566667 197.74,532.94 C195.18,530.313333 192.1,528.253333 188.5,526.76 C184.9,525.266667 180.913333,524.52 176.54,524.52 C172.166667,524.52 168.173333,525.26 164.56,526.74 C160.946667,528.22 157.853333,530.28 155.28,532.92 C152.706667,535.56 150.713333,538.686667 149.3,542.3 C147.886667,545.913333 147.18,549.84 147.18,554.08 C147.18,558.32 147.886667,562.246667 149.3,565.86 C150.713333,569.473333 152.706667,572.6 155.28,575.24 C157.853333,577.88 160.946667,579.94 164.56,581.42 C168.173333,582.9 172.166667,583.64 176.54,583.64 Z M176.54,574.44 C173.713333,574.44 171.166667,573.973333 168.9,573.04 C166.633333,572.106667 164.706667,570.766667 163.12,569.02 C161.533333,567.273333 160.313333,565.14 159.46,562.62 C158.606667,560.1 158.18,557.253333 158.18,554.08 C158.18,550.906667 158.606667,548.06 159.46,545.54 C160.313333,543.02 161.533333,540.88 163.12,539.12 C164.706667,537.36 166.633333,536.013333 168.9,535.08 C171.166667,534.146667 173.713333,533.68 176.54,533.68 C179.366667,533.68 181.906667,534.146667 184.16,535.08 C186.413333,536.013333 188.326667,537.36 189.9,539.12 C191.473333,540.88 192.68,543.02 193.52,545.54 C194.36,548.06 194.78,550.906667 194.78,554.08 C194.78,557.253333 194.36,560.1 193.52,562.62 C192.68,565.14 191.473333,567.273333 189.9,569.02 C188.326667,570.766667 186.413333,572.106667 184.16,573.04 C181.906667,573.973333 179.366667,574.44 176.54,574.44 Z M223.78,583 L223.78,545.64 C223.78,544.92 223.76,544.14 223.72,543.3 C223.68,542.46 223.606667,541.6 223.5,540.72 L223.5,540.72 L241.22,573.64 C241.62,574.386667 242.14,574.966667 242.78,575.38 C243.42,575.793333 244.166667,576 245.02,576 L245.02,576 L246.5,576 C247.353333,576 248.1,575.793333 248.74,575.38 C249.38,574.966667 249.9,574.386667 250.3,573.64 L250.3,573.64 L267.78,540.84 C267.7,541.693333 267.64,542.533333 267.6,543.36 C267.56,544.186667 267.54,544.946667 267.54,545.64 L267.54,545.64 L267.54,583 L277.02,583 L277.02,525.16 L268.9,525.16 C268.42,525.16 268.006667,525.173333 267.66,525.2 C267.313333,525.226667 267,525.293333 266.72,525.4 C266.44,525.506667 266.186667,525.68 265.96,525.92 C265.733333,526.16 265.513333,526.48 265.3,526.88 L265.3,526.88 L248.18,558.92 C247.726667,559.773333 247.3,560.666667 246.9,561.6 C246.5,562.533333 246.113333,563.48 245.74,564.44 C245.366667,563.506667 244.986667,562.58 244.6,561.66 C244.213333,560.74 243.793333,559.853333 243.34,559 L243.34,559 L226.06,526.88 C225.846667,526.48 225.62,526.16 225.38,525.92 C225.14,525.68 224.88,525.506667 224.6,525.4 C224.32,525.293333 224.006667,525.226667 223.66,525.2 C223.313333,525.173333 222.9,525.16 222.42,525.16 L222.42,525.16 L214.3,525.16 L214.3,583 L223.78,583 Z M299.82,583 L299.82,562.64 L307.9,562.64 C311.66,562.64 314.94,562.173333 317.74,561.24 C320.54,560.306667 322.873333,559 324.74,557.32 C326.606667,555.64 328.006667,553.633333 328.94,551.3 C329.873333,548.966667 330.34,546.4 330.34,543.6 C330.34,540.906667 329.9,538.426667 329.02,536.16 C328.14,533.893333 326.78,531.946667 324.94,530.32 C323.1,528.693333 320.766667,527.426667 317.94,526.52 C315.113333,525.613333 311.766667,525.16 307.9,525.16 L307.9,525.16 L289.06,525.16 L289.06,583 L299.82,583 Z M307.9,554.24 L299.82,554.24 L299.82,533.48 L307.9,533.48 C309.873333,533.48 311.593333,533.713333 313.06,534.18 C314.526667,534.646667 315.74,535.32 316.7,536.2 C317.66,537.08 318.38,538.146667 318.86,539.4 C319.34,540.653333 319.58,542.053333 319.58,543.6 C319.58,545.226667 319.34,546.7 318.86,548.02 C318.38,549.34 317.66,550.46 316.7,551.38 C315.74,552.3 314.526667,553.006667 313.06,553.5 C311.593333,553.993333 309.873333,554.24 307.9,554.24 L307.9,554.24 Z M375.18,583 L375.18,574.4 L349.54,574.4 L349.54,558.04 L369.74,558.04 L369.74,549.76 L349.54,549.76 L349.54,533.72 L375.18,533.72 L375.18,525.16 L338.7,525.16 L338.7,583 L375.18,583 Z M407.86,583 L407.86,534 L425.26,534 L425.26,525.16 L379.62,525.16 L379.62,534 L397.1,534 L397.1,583 L407.86,583 Z M444.22,583 L444.22,525.16 L433.42,525.16 L433.42,583 L444.22,583 Z M480.58,583 L480.58,534 L497.98,534 L497.98,525.16 L452.34,525.16 L452.34,534 L469.82,534 L469.82,583 L480.58,583 Z M527.9,583.64 C532.273333,583.64 536.26,582.9 539.86,581.42 C543.46,579.94 546.54,577.88 549.1,575.24 C551.66,572.6 553.646667,569.473333 555.06,565.86 C556.473333,562.246667 557.18,558.32 557.18,554.08 C557.18,549.84 556.473333,545.913333 555.06,542.3 C553.646667,538.686667 551.66,535.566667 549.1,532.94 C546.54,530.313333 543.46,528.253333 539.86,526.76 C536.26,525.266667 532.273333,524.52 527.9,524.52 C523.526667,524.52 519.533333,525.26 515.92,526.74 C512.306667,528.22 509.213333,530.28 506.64,532.92 C504.066667,535.56 502.073333,538.686667 500.66,542.3 C499.246667,545.913333 498.54,549.84 498.54,554.08 C498.54,558.32 499.246667,562.246667 500.66,565.86 C502.073333,569.473333 504.066667,572.6 506.64,575.24 C509.213333,577.88 512.306667,579.94 515.92,581.42 C519.533333,582.9 523.526667,583.64 527.9,583.64 Z M527.9,574.44 C525.073333,574.44 522.526667,573.973333 520.26,573.04 C517.993333,572.106667 516.066667,570.766667 514.48,569.02 C512.893333,567.273333 511.673333,565.14 510.82,562.62 C509.966667,560.1 509.54,557.253333 509.54,554.08 C509.54,550.906667 509.966667,548.06 510.82,545.54 C511.673333,543.02 512.893333,540.88 514.48,539.12 C516.066667,537.36 517.993333,536.013333 520.26,535.08 C522.526667,534.146667 525.073333,533.68 527.9,533.68 C530.726667,533.68 533.266667,534.146667 535.52,535.08 C537.773333,536.013333 539.686667,537.36 541.26,539.12 C542.833333,540.88 544.04,543.02 544.88,545.54 C545.72,548.06 546.14,550.906667 546.14,554.08 C546.14,557.253333 545.72,560.1 544.88,562.62 C544.04,565.14 542.833333,567.273333 541.26,569.02 C539.686667,570.766667 537.773333,572.106667 535.52,573.04 C533.266667,573.973333 530.726667,574.44 527.9,574.44 Z M576.78,583 L576.78,560.4 L581.38,560.4 C582.446667,560.4 583.253333,560.546667 583.8,560.84 C584.346667,561.133333 584.846667,561.626667 585.3,562.32 L585.3,562.32 L597.46,580.84 C597.913333,581.533333 598.466667,582.066667 599.12,582.44 C599.773333,582.813333 600.566667,583 601.5,583 L601.5,583 L611.18,583 L596.7,561.64 C595.713333,560.2 594.54,559.093333 593.18,558.32 C595.206667,557.68 597.013333,556.826667 598.6,555.76 C600.186667,554.693333 601.52,553.453333 602.6,552.04 C603.68,550.626667 604.506667,549.053333 605.08,547.32 C605.653333,545.586667 605.94,543.746667 605.94,541.8 C605.94,539.346667 605.52,537.1 604.68,535.06 C603.84,533.02 602.52,531.266667 600.72,529.8 C598.92,528.333333 596.613333,527.193333 593.8,526.38 C590.986667,525.566667 587.606667,525.16 583.66,525.16 L583.66,525.16 L566.02,525.16 L566.02,583 L576.78,583 Z M583.5,552.68 L576.78,552.68 L576.78,533.48 L583.66,533.48 C587.633333,533.48 590.586667,534.266667 592.52,535.84 C594.453333,537.413333 595.42,539.666667 595.42,542.6 C595.42,544.066667 595.18,545.413333 594.7,546.64 C594.22,547.866667 593.493333,548.926667 592.52,549.82 C591.546667,550.713333 590.306667,551.413333 588.8,551.92 C587.293333,552.426667 585.526667,552.68 583.5,552.68 L583.5,552.68 Z M632.66,583.64 C635.86,583.64 638.7,583.153333 641.18,582.18 C643.66,581.206667 645.76,579.873333 647.48,578.18 C649.2,576.486667 650.506667,574.5 651.4,572.22 C652.293333,569.94 652.74,567.493333 652.74,564.88 C652.74,562.48 652.36,560.44 651.6,558.76 C650.84,557.08 649.833333,555.66 648.58,554.5 C647.326667,553.34 645.9,552.38 644.3,551.62 C642.7,550.86 641.066667,550.193333 639.4,549.62 C637.733333,549.046667 636.1,548.506667 634.5,548 C632.9,547.493333 631.473333,546.92 630.22,546.28 C628.966667,545.64 627.96,544.866667 627.2,543.96 C626.44,543.053333 626.06,541.92 626.06,540.56 C626.06,539.493333 626.246667,538.513333 626.62,537.62 C626.993333,536.726667 627.56,535.96 628.32,535.32 C629.08,534.68 630.013333,534.18 631.12,533.82 C632.226667,533.46 633.526667,533.28 635.02,533.28 C636.673333,533.28 638.106667,533.486667 639.32,533.9 C640.533333,534.313333 641.593333,534.773333 642.5,535.28 C643.406667,535.786667 644.193333,536.246667 644.86,536.66 C645.526667,537.073333 646.126667,537.28 646.66,537.28 C647.193333,537.28 647.653333,537.16 648.04,536.92 C648.426667,536.68 648.766667,536.266667 649.06,535.68 L649.06,535.68 L651.7,530.6 C649.673333,528.68 647.22,527.186667 644.34,526.12 C641.46,525.053333 638.313333,524.52 634.9,524.52 C631.886667,524.52 629.206667,524.986667 626.86,525.92 C624.513333,526.853333 622.533333,528.093333 620.92,529.64 C619.306667,531.186667 618.08,532.96 617.24,534.96 C616.4,536.96 615.98,539.013333 615.98,541.12 C615.98,543.76 616.36,545.98 617.12,547.78 C617.88,549.58 618.886667,551.08 620.14,552.28 C621.393333,553.48 622.82,554.453333 624.42,555.2 C626.02,555.946667 627.646667,556.586667 629.3,557.12 C630.953333,557.653333 632.58,558.146667 634.18,558.6 C635.78,559.053333 637.206667,559.606667 638.46,560.26 C639.713333,560.913333 640.72,561.72 641.48,562.68 C642.24,563.64 642.62,564.88 642.62,566.4 C642.62,569.12 641.78,571.206667 640.1,572.66 C638.42,574.113333 636.046667,574.84 632.98,574.84 C630.98,574.84 629.266667,574.566667 627.84,574.02 C626.413333,573.473333 625.173333,572.866667 624.12,572.2 C623.066667,571.533333 622.153333,570.926667 621.38,570.38 C620.606667,569.833333 619.886667,569.56 619.22,569.56 C618.713333,569.56 618.253333,569.686667 617.84,569.94 C617.426667,570.193333 617.073333,570.506667 616.78,570.88 L616.78,570.88 L613.66,576.04 C614.78,577.186667 616.053333,578.226667 617.48,579.16 C618.906667,580.093333 620.44,580.893333 622.08,581.56 C623.72,582.226667 625.433333,582.74 627.22,583.1 C629.006667,583.46 630.82,583.64 632.66,583.64 Z" id="COMPETITORS" fill="#FFFFFF"></path>
            </g>
        </g>
    </g>
</svg>