<?xml version="1.0" encoding="UTF-8"?>
<svg width="746px" height="973px" viewBox="0 0 746 973" version="1.1" xmlns="http://www.w3.org/2000/svg" xmlns:xlink="http://www.w3.org/1999/xlink">
    <!-- Generator: Sketch 61 (89581) - https://sketch.com -->
    <title>MBM_badge_financial_capital</title>
    <desc>Created with Sketch.</desc>
    <g id="Page-1" stroke="none" stroke-width="1" fill="none" fill-rule="evenodd">
        <g id="Artboard" fill-rule="nonzero">
            <g id="MBM_badge_financial_capital">
                <path d="M37.7191026,124.026416 L352.044944,3.83680009 C365.547231,-1.27893336 380.452769,-1.27893336 393.955056,3.83680009 L708.280897,124.026416 C731.001605,132.719337 746,154.539 746,178.879179 L746,794.169496 C746,818.509675 731.001605,840.329338 708.280897,849.022259 L393.955056,969.128002 C380.461391,974.290666 365.538609,974.290666 352.044944,969.128002 L37.7191026,849.022259 C14.9983948,840.329338 0,818.509675 0,794.169496 L0,178.879179 C0,154.539 14.9983948,132.719337 37.7191026,124.026416 Z" id="Path" fill="#8A2084"></path>
                <path d="M59.2172038,141.758727 L373,25 L686.782796,141.758727 C709.755935,150.303228 725,172.230543 725,196.743455 L725,778.274 C725.037501,802.986152 709.588525,825.072766 686.363749,833.510182 L373,947 L59.6362513,833.510182 C36.4114751,825.072766 20.9624992,802.986152 21,778.274 L21,196.743455 C21,172.230543 36.2440649,150.303228 59.2172038,141.758727 Z" id="Path" fill="#A14D9D"></path>
                <path d="M373,25 L373,947 L686.02855,835.270364 C709.414483,826.934807 725.02215,804.779699 725,779.950364 L725,192.133455 C724.986702,167.334867 709.385514,145.222511 686.02855,136.897273 L373,25 Z" id="Path" fill="#8A2084"></path>
                <path d="M532,889 L685.532409,835.578737 C709.195766,827.349979 725.030937,805.021241 724.96423,779.977014 L724.96423,207.774062 C725.26541,205.458226 723.631455,203.336814 721.314689,203.035755 C718.997924,202.734697 716.875661,204.367996 716.574481,206.683832 L532,889 Z" id="Path" fill="#681863"></path>
                <path d="M214,897 L60.4395246,835.31619 C36.7426037,827.082738 20.897893,804.725428 21,779.666667 L21,193 L214,897 Z" id="Path" fill="#8A2084"></path>
                <path d="M177.32,583 L177.32,559.44 L198.96,559.44 L198.96,550.84 L177.32,550.84 L177.32,533.72 L202.96,533.72 L202.96,525.16 L166.48,525.16 L166.48,583 L177.32,583 Z M223.52,583 L223.52,525.16 L212.72,525.16 L212.72,583 L223.52,583 Z M246,583 L246,547.48 C246,546.786667 245.98,546.02 245.94,545.18 C245.9,544.34 245.84,543.493333 245.76,542.64 L245.76,542.64 L276,581.16 C276.533333,581.853333 277.08,582.333333 277.64,582.6 C278.2,582.866667 278.906667,583 279.76,583 L279.76,583 L285.32,583 L285.32,525.16 L275.84,525.16 L275.84,560.32 C275.84,561.093333 275.86,561.926667 275.9,562.82 C275.94,563.713333 276.013333,564.626667 276.12,565.56 L276.12,565.56 L245.76,526.88 C245.466667,526.506667 245.2,526.206667 244.96,525.98 C244.72,525.753333 244.473333,525.58 244.22,525.46 C243.966667,525.34 243.68,525.26 243.36,525.22 C243.04,525.18 242.64,525.16 242.16,525.16 L242.16,525.16 L236.52,525.16 L236.52,583 L246,583 Z M299.76,583 C300.666667,583 301.433333,582.746667 302.06,582.24 C302.686667,581.733333 303.106667,581.173333 303.32,580.56 L303.32,580.56 L307.64,568.76 L331.6,568.76 L335.92,580.56 C336.186667,581.253333 336.62,581.833333 337.22,582.3 C337.82,582.766667 338.586667,583 339.52,583 L339.52,583 L347.84,583 L325.12,525.16 L314.12,525.16 L291.4,583 L299.76,583 Z M328.84,561.16 L310.4,561.16 L317.44,542 C317.786667,541.12 318.14,540.093333 318.5,538.92 C318.86,537.746667 319.226667,536.48 319.6,535.12 C319.973333,536.48 320.353333,537.74 320.74,538.9 C321.126667,540.06 321.48,541.066667 321.8,541.92 L321.8,541.92 L328.84,561.16 Z M363.28,583 L363.28,547.48 C363.28,546.786667 363.26,546.02 363.22,545.18 C363.18,544.34 363.12,543.493333 363.04,542.64 L363.04,542.64 L393.28,581.16 C393.813333,581.853333 394.36,582.333333 394.92,582.6 C395.48,582.866667 396.186667,583 397.04,583 L397.04,583 L402.6,583 L402.6,525.16 L393.12,525.16 L393.12,560.32 C393.12,561.093333 393.14,561.926667 393.18,562.82 C393.22,563.713333 393.293333,564.626667 393.4,565.56 L393.4,565.56 L363.04,526.88 C362.746667,526.506667 362.48,526.206667 362.24,525.98 C362,525.753333 361.753333,525.58 361.5,525.46 C361.246667,525.34 360.96,525.26 360.64,525.22 C360.32,525.18 359.92,525.16 359.44,525.16 L359.44,525.16 L353.8,525.16 L353.8,583 L363.28,583 Z M438.8,583.64 C443.6,583.64 447.713333,582.866667 451.14,581.32 C454.566667,579.773333 457.453333,577.546667 459.8,574.64 L459.8,574.64 L455.56,570.04 C455.133333,569.586667 454.626667,569.36 454.04,569.36 C453.693333,569.36 453.373333,569.433333 453.08,569.58 C452.786667,569.726667 452.506667,569.92 452.24,570.16 C451.36,570.96 450.473333,571.633333 449.58,572.18 C448.686667,572.726667 447.74,573.173333 446.74,573.52 C445.74,573.866667 444.646667,574.12 443.46,574.28 C442.273333,574.44 440.946667,574.52 439.48,574.52 C437.026667,574.52 434.733333,574.06 432.6,573.14 C430.466667,572.22 428.613333,570.893333 427.04,569.16 C425.466667,567.426667 424.22,565.293333 423.3,562.76 C422.38,560.226667 421.92,557.333333 421.92,554.08 C421.92,550.933333 422.38,548.1 423.3,545.58 C424.22,543.06 425.5,540.92 427.14,539.16 C428.78,537.4 430.74,536.046667 433.02,535.1 C435.3,534.153333 437.8,533.68 440.52,533.68 C442.84,533.68 444.753333,533.92 446.26,534.4 C447.766667,534.88 449.013333,535.4 450,535.96 C450.986667,536.52 451.8,537.04 452.44,537.52 C453.08,538 453.706667,538.24 454.32,538.24 C454.906667,538.24 455.366667,538.12 455.7,537.88 C456.033333,537.64 456.306667,537.36 456.52,537.04 L456.52,537.04 L460.12,532.04 C457.826667,529.773333 455.073333,527.953333 451.86,526.58 C448.646667,525.206667 444.893333,524.52 440.6,524.52 C436.2,524.52 432.18,525.246667 428.54,526.7 C424.9,528.153333 421.773333,530.186667 419.16,532.8 C416.546667,535.413333 414.52,538.526667 413.08,542.14 C411.64,545.753333 410.92,549.733333 410.92,554.08 C410.92,558.373333 411.566667,562.333333 412.86,565.96 C414.153333,569.586667 416.013333,572.706667 418.44,575.32 C420.866667,577.933333 423.793333,579.973333 427.22,581.44 C430.646667,582.906667 434.506667,583.64 438.8,583.64 Z M480.04,583 L480.04,525.16 L469.24,525.16 L469.24,583 L480.04,583 Z M495.8,583 C496.706667,583 497.473333,582.746667 498.1,582.24 C498.726667,581.733333 499.146667,581.173333 499.36,580.56 L499.36,580.56 L503.68,568.76 L527.64,568.76 L531.96,580.56 C532.226667,581.253333 532.66,581.833333 533.26,582.3 C533.86,582.766667 534.626667,583 535.56,583 L535.56,583 L543.88,583 L521.16,525.16 L510.16,525.16 L487.44,583 L495.8,583 Z M524.88,561.16 L506.44,561.16 L513.48,542 C513.826667,541.12 514.18,540.093333 514.54,538.92 C514.9,537.746667 515.266667,536.48 515.64,535.12 C516.013333,536.48 516.393333,537.74 516.78,538.9 C517.166667,540.06 517.52,541.066667 517.84,541.92 L517.84,541.92 L524.88,561.16 Z M583.76,583 L583.76,574.12 L560.6,574.12 L560.6,525.16 L549.84,525.16 L549.84,583 L583.76,583 Z M240.64,679.64 C245.44,679.64 249.553333,678.866667 252.98,677.32 C256.406667,675.773333 259.293333,673.546667 261.64,670.64 L261.64,670.64 L257.4,666.04 C256.973333,665.586667 256.466667,665.36 255.88,665.36 C255.533333,665.36 255.213333,665.433333 254.92,665.58 C254.626667,665.726667 254.346667,665.92 254.08,666.16 C253.2,666.96 252.313333,667.633333 251.42,668.18 C250.526667,668.726667 249.58,669.173333 248.58,669.52 C247.58,669.866667 246.486667,670.12 245.3,670.28 C244.113333,670.44 242.786667,670.52 241.32,670.52 C238.866667,670.52 236.573333,670.06 234.44,669.14 C232.306667,668.22 230.453333,666.893333 228.88,665.16 C227.306667,663.426667 226.06,661.293333 225.14,658.76 C224.22,656.226667 223.76,653.333333 223.76,650.08 C223.76,646.933333 224.22,644.1 225.14,641.58 C226.06,639.06 227.34,636.92 228.98,635.16 C230.62,633.4 232.58,632.046667 234.86,631.1 C237.14,630.153333 239.64,629.68 242.36,629.68 C244.68,629.68 246.593333,629.92 248.1,630.4 C249.606667,630.88 250.853333,631.4 251.84,631.96 C252.826667,632.52 253.64,633.04 254.28,633.52 C254.92,634 255.546667,634.24 256.16,634.24 C256.746667,634.24 257.206667,634.12 257.54,633.88 C257.873333,633.64 258.146667,633.36 258.36,633.04 L258.36,633.04 L261.96,628.04 C259.666667,625.773333 256.913333,623.953333 253.7,622.58 C250.486667,621.206667 246.733333,620.52 242.44,620.52 C238.04,620.52 234.02,621.246667 230.38,622.7 C226.74,624.153333 223.613333,626.186667 221,628.8 C218.386667,631.413333 216.36,634.526667 214.92,638.14 C213.48,641.753333 212.76,645.733333 212.76,650.08 C212.76,654.373333 213.406667,658.333333 214.7,661.96 C215.993333,665.586667 217.853333,668.706667 220.28,671.32 C222.706667,673.933333 225.633333,675.973333 229.06,677.44 C232.486667,678.906667 236.346667,679.64 240.64,679.64 Z M272.52,679 C273.426667,679 274.193333,678.746667 274.82,678.24 C275.446667,677.733333 275.866667,677.173333 276.08,676.56 L276.08,676.56 L280.4,664.76 L304.36,664.76 L308.68,676.56 C308.946667,677.253333 309.38,677.833333 309.98,678.3 C310.58,678.766667 311.346667,679 312.28,679 L312.28,679 L320.6,679 L297.88,621.16 L286.88,621.16 L264.16,679 L272.52,679 Z M301.6,657.16 L283.16,657.16 L290.2,638 C290.546667,637.12 290.9,636.093333 291.26,634.92 C291.62,633.746667 291.986667,632.48 292.36,631.12 C292.733333,632.48 293.113333,633.74 293.5,634.9 C293.886667,636.06 294.24,637.066667 294.56,637.92 L294.56,637.92 L301.6,657.16 Z M337.68,679 L337.68,658.64 L345.76,658.64 C349.52,658.64 352.8,658.173333 355.6,657.24 C358.4,656.306667 360.733333,655 362.6,653.32 C364.466667,651.64 365.866667,649.633333 366.8,647.3 C367.733333,644.966667 368.2,642.4 368.2,639.6 C368.2,636.906667 367.76,634.426667 366.88,632.16 C366,629.893333 364.64,627.946667 362.8,626.32 C360.96,624.693333 358.626667,623.426667 355.8,622.52 C352.973333,621.613333 349.626667,621.16 345.76,621.16 L345.76,621.16 L326.92,621.16 L326.92,679 L337.68,679 Z M345.76,650.24 L337.68,650.24 L337.68,629.48 L345.76,629.48 C347.733333,629.48 349.453333,629.713333 350.92,630.18 C352.386667,630.646667 353.6,631.32 354.56,632.2 C355.52,633.08 356.24,634.146667 356.72,635.4 C357.2,636.653333 357.44,638.053333 357.44,639.6 C357.44,641.226667 357.2,642.7 356.72,644.02 C356.24,645.34 355.52,646.46 354.56,647.38 C353.6,648.3 352.386667,649.006667 350.92,649.5 C349.453333,649.993333 347.733333,650.24 345.76,650.24 L345.76,650.24 Z M388.68,679 L388.68,621.16 L377.88,621.16 L377.88,679 L388.68,679 Z M425.04,679 L425.04,630 L442.44,630 L442.44,621.16 L396.8,621.16 L396.8,630 L414.28,630 L414.28,679 L425.04,679 Z M446.16,679 C447.066667,679 447.833333,678.746667 448.46,678.24 C449.086667,677.733333 449.506667,677.173333 449.72,676.56 L449.72,676.56 L454.04,664.76 L478,664.76 L482.32,676.56 C482.586667,677.253333 483.02,677.833333 483.62,678.3 C484.22,678.766667 484.986667,679 485.92,679 L485.92,679 L494.24,679 L471.52,621.16 L460.52,621.16 L437.8,679 L446.16,679 Z M475.24,657.16 L456.8,657.16 L463.84,638 C464.186667,637.12 464.54,636.093333 464.9,634.92 C465.26,633.746667 465.626667,632.48 466,631.12 C466.373333,632.48 466.753333,633.74 467.14,634.9 C467.526667,636.06 467.88,637.066667 468.2,637.92 L468.2,637.92 L475.24,657.16 Z M534.12,679 L534.12,670.12 L510.96,670.12 L510.96,621.16 L500.2,621.16 L500.2,679 L534.12,679 Z" id="FINANCIALCAPITAL" fill="#FFFFFF"></path>
            </g>
        </g>
    </g>
</svg>