<?xml version="1.0" encoding="UTF-8"?>
<svg width="746px" height="973px" viewBox="0 0 746 973" version="1.1" xmlns="http://www.w3.org/2000/svg" xmlns:xlink="http://www.w3.org/1999/xlink">
    <!-- Generator: Sketch 61 (89581) - https://sketch.com -->
    <title>MBM_badge_business_model</title>
    <desc>Created with Sketch.</desc>
    <g id="Page-1" stroke="none" stroke-width="1" fill="none" fill-rule="evenodd">
        <g id="Artboard" fill-rule="nonzero">
            <g id="MBM_badge_business_model">
                <path d="M37.7191026,124.026416 L352.044944,3.83680009 C365.547231,-1.27893336 380.452769,-1.27893336 393.955056,3.83680009 L708.280897,124.026416 C731.001605,132.719337 746,154.539 746,178.879179 L746,794.169496 C746,818.509675 731.001605,840.329338 708.280897,849.022259 L393.955056,969.128002 C380.461391,974.290666 365.538609,974.290666 352.044944,969.128002 L37.7191026,849.022259 C14.9983948,840.329338 0,818.509675 0,794.169496 L0,178.879179 C0,154.539 14.9983948,132.719337 37.7191026,124.026416 Z" id="Path" fill="#EBA900"></path>
                <path d="M59.2172038,141.758727 L373,25 L686.782796,141.758727 C709.755935,150.303228 725,172.230543 725,196.743455 L725,778.274 C725.037501,802.986152 709.588525,825.072766 686.363749,833.510182 L373,947 L59.6362513,833.510182 C36.4114751,825.072766 20.9624992,802.986152 21,778.274 L21,196.743455 C21,172.230543 36.2440649,150.303228 59.2172038,141.758727 Z" id="Path" fill="#EFBA33"></path>
                <path d="M373,25 L373,947 L686.02855,835.270364 C709.414483,826.934807 725.02215,804.779699 725,779.950364 L725,192.133455 C724.986702,167.334867 709.385514,145.222511 686.02855,136.897273 L373,25 Z" id="Path" fill="#EBA900"></path>
                <path d="M532,889 L685.532409,835.578737 C709.195766,827.349979 725.030937,805.021241 724.96423,779.977014 L724.96423,207.774062 C725.26541,205.458226 723.631455,203.336814 721.314689,203.035755 C718.997924,202.734697 716.875661,204.367996 716.574481,206.683832 L532,889 Z" id="Path" fill="#B07F00"></path>
                <path d="M214,897 L60.4395246,835.31619 C36.7426037,827.082738 20.897893,804.725428 21,779.666667 L21,193 L214,897 Z" id="Path" fill="#EBA900"></path>
                <path d="M215.42,583 C218.78,583 221.766667,582.573333 224.38,581.72 C226.993333,580.866667 229.193333,579.686667 230.98,578.18 C232.766667,576.673333 234.126667,574.88 235.06,572.8 C235.993333,570.72 236.46,568.453333 236.46,566 C236.46,559.2 232.486667,554.906667 224.54,553.12 C226.326667,552.506667 227.866667,551.76 229.16,550.88 C230.453333,550 231.52,549.02 232.36,547.94 C233.2,546.86 233.82,545.7 234.22,544.46 C234.62,543.22 234.82,541.92 234.82,540.56 C234.82,538.186667 234.42,536.053333 233.62,534.16 C232.82,532.266667 231.56,530.653333 229.84,529.32 C228.12,527.986667 225.92,526.96 223.24,526.24 C220.56,525.52 217.326667,525.16 213.54,525.16 L213.54,525.16 L193.58,525.16 L193.58,583 L215.42,583 Z M212.94,550.2 L204.34,550.2 L204.34,533.48 L213.54,533.48 C217.166667,533.48 219.833333,534.12 221.54,535.4 C223.246667,536.68 224.1,538.826667 224.1,541.84 C224.1,544.746667 223.153333,546.866667 221.26,548.2 C219.366667,549.533333 216.593333,550.2 212.94,550.2 L212.94,550.2 Z M215.26,574.6 L204.34,574.6 L204.34,557.64 L215.22,557.64 C217.113333,557.64 218.726667,557.826667 220.06,558.2 C221.393333,558.573333 222.486667,559.113333 223.34,559.82 C224.193333,560.526667 224.82,561.38 225.22,562.38 C225.62,563.38 225.82,564.506667 225.82,565.76 C225.82,566.96 225.64,568.093333 225.28,569.16 C224.92,570.226667 224.333333,571.16 223.52,571.96 C222.706667,572.76 221.626667,573.4 220.28,573.88 C218.933333,574.36 217.26,574.6 215.26,574.6 L215.26,574.6 Z M268.98,583.64 C272.686667,583.64 276.02,583.046667 278.98,581.86 C281.94,580.673333 284.46,579.02 286.54,576.9 C288.62,574.78 290.213333,572.26 291.32,569.34 C292.426667,566.42 292.98,563.24 292.98,559.8 L292.98,559.8 L292.98,525.16 L282.22,525.16 L282.22,559.8 C282.22,562.013333 281.92,564.013333 281.32,565.8 C280.72,567.586667 279.853333,569.106667 278.72,570.36 C277.586667,571.613333 276.2,572.586667 274.56,573.28 C272.92,573.973333 271.06,574.32 268.98,574.32 C266.9,574.32 265.04,573.973333 263.4,573.28 C261.76,572.586667 260.38,571.606667 259.26,570.34 C258.14,569.073333 257.28,567.546667 256.68,565.76 C256.08,563.973333 255.78,561.973333 255.78,559.76 L255.78,559.76 L255.78,525.16 L245.02,525.16 L245.02,559.8 C245.02,563.24 245.573333,566.42 246.68,569.34 C247.786667,572.26 249.373333,574.78 251.44,576.9 C253.506667,579.02 256.02,580.673333 258.98,581.86 C261.94,583.046667 265.273333,583.64 268.98,583.64 Z M318.54,583.64 C321.74,583.64 324.58,583.153333 327.06,582.18 C329.54,581.206667 331.64,579.873333 333.36,578.18 C335.08,576.486667 336.386667,574.5 337.28,572.22 C338.173333,569.94 338.62,567.493333 338.62,564.88 C338.62,562.48 338.24,560.44 337.48,558.76 C336.72,557.08 335.713333,555.66 334.46,554.5 C333.206667,553.34 331.78,552.38 330.18,551.62 C328.58,550.86 326.946667,550.193333 325.28,549.62 C323.613333,549.046667 321.98,548.506667 320.38,548 C318.78,547.493333 317.353333,546.92 316.1,546.28 C314.846667,545.64 313.84,544.866667 313.08,543.96 C312.32,543.053333 311.94,541.92 311.94,540.56 C311.94,539.493333 312.126667,538.513333 312.5,537.62 C312.873333,536.726667 313.44,535.96 314.2,535.32 C314.96,534.68 315.893333,534.18 317,533.82 C318.106667,533.46 319.406667,533.28 320.9,533.28 C322.553333,533.28 323.986667,533.486667 325.2,533.9 C326.413333,534.313333 327.473333,534.773333 328.38,535.28 C329.286667,535.786667 330.073333,536.246667 330.74,536.66 C331.406667,537.073333 332.006667,537.28 332.54,537.28 C333.073333,537.28 333.533333,537.16 333.92,536.92 C334.306667,536.68 334.646667,536.266667 334.94,535.68 L334.94,535.68 L337.58,530.6 C335.553333,528.68 333.1,527.186667 330.22,526.12 C327.34,525.053333 324.193333,524.52 320.78,524.52 C317.766667,524.52 315.086667,524.986667 312.74,525.92 C310.393333,526.853333 308.413333,528.093333 306.8,529.64 C305.186667,531.186667 303.96,532.96 303.12,534.96 C302.28,536.96 301.86,539.013333 301.86,541.12 C301.86,543.76 302.24,545.98 303,547.78 C303.76,549.58 304.766667,551.08 306.02,552.28 C307.273333,553.48 308.7,554.453333 310.3,555.2 C311.9,555.946667 313.526667,556.586667 315.18,557.12 C316.833333,557.653333 318.46,558.146667 320.06,558.6 C321.66,559.053333 323.086667,559.606667 324.34,560.26 C325.593333,560.913333 326.6,561.72 327.36,562.68 C328.12,563.64 328.5,564.88 328.5,566.4 C328.5,569.12 327.66,571.206667 325.98,572.66 C324.3,574.113333 321.926667,574.84 318.86,574.84 C316.86,574.84 315.146667,574.566667 313.72,574.02 C312.293333,573.473333 311.053333,572.866667 310,572.2 C308.946667,571.533333 308.033333,570.926667 307.26,570.38 C306.486667,569.833333 305.766667,569.56 305.1,569.56 C304.593333,569.56 304.133333,569.686667 303.72,569.94 C303.306667,570.193333 302.953333,570.506667 302.66,570.88 L302.66,570.88 L299.54,576.04 C300.66,577.186667 301.933333,578.226667 303.36,579.16 C304.786667,580.093333 306.32,580.893333 307.96,581.56 C309.6,582.226667 311.313333,582.74 313.1,583.1 C314.886667,583.46 316.7,583.64 318.54,583.64 Z M358.98,583 L358.98,525.16 L348.18,525.16 L348.18,583 L358.98,583 Z M381.46,583 L381.46,547.48 C381.46,546.786667 381.44,546.02 381.4,545.18 C381.36,544.34 381.3,543.493333 381.22,542.64 L381.22,542.64 L411.46,581.16 C411.993333,581.853333 412.54,582.333333 413.1,582.6 C413.66,582.866667 414.366667,583 415.22,583 L415.22,583 L420.78,583 L420.78,525.16 L411.3,525.16 L411.3,560.32 C411.3,561.093333 411.32,561.926667 411.36,562.82 C411.4,563.713333 411.473333,564.626667 411.58,565.56 L411.58,565.56 L381.22,526.88 C380.926667,526.506667 380.66,526.206667 380.42,525.98 C380.18,525.753333 379.933333,525.58 379.68,525.46 C379.426667,525.34 379.14,525.26 378.82,525.22 C378.5,525.18 378.1,525.16 377.62,525.16 L377.62,525.16 L371.98,525.16 L371.98,583 L381.46,583 Z M468.94,583 L468.94,574.4 L443.3,574.4 L443.3,558.04 L463.5,558.04 L463.5,549.76 L443.3,549.76 L443.3,533.72 L468.94,533.72 L468.94,525.16 L432.46,525.16 L432.46,583 L468.94,583 Z M492.86,583.64 C496.06,583.64 498.9,583.153333 501.38,582.18 C503.86,581.206667 505.96,579.873333 507.68,578.18 C509.4,576.486667 510.706667,574.5 511.6,572.22 C512.493333,569.94 512.94,567.493333 512.94,564.88 C512.94,562.48 512.56,560.44 511.8,558.76 C511.04,557.08 510.033333,555.66 508.78,554.5 C507.526667,553.34 506.1,552.38 504.5,551.62 C502.9,550.86 501.266667,550.193333 499.6,549.62 C497.933333,549.046667 496.3,548.506667 494.7,548 C493.1,547.493333 491.673333,546.92 490.42,546.28 C489.166667,545.64 488.16,544.866667 487.4,543.96 C486.64,543.053333 486.26,541.92 486.26,540.56 C486.26,539.493333 486.446667,538.513333 486.82,537.62 C487.193333,536.726667 487.76,535.96 488.52,535.32 C489.28,534.68 490.213333,534.18 491.32,533.82 C492.426667,533.46 493.726667,533.28 495.22,533.28 C496.873333,533.28 498.306667,533.486667 499.52,533.9 C500.733333,534.313333 501.793333,534.773333 502.7,535.28 C503.606667,535.786667 504.393333,536.246667 505.06,536.66 C505.726667,537.073333 506.326667,537.28 506.86,537.28 C507.393333,537.28 507.853333,537.16 508.24,536.92 C508.626667,536.68 508.966667,536.266667 509.26,535.68 L509.26,535.68 L511.9,530.6 C509.873333,528.68 507.42,527.186667 504.54,526.12 C501.66,525.053333 498.513333,524.52 495.1,524.52 C492.086667,524.52 489.406667,524.986667 487.06,525.92 C484.713333,526.853333 482.733333,528.093333 481.12,529.64 C479.506667,531.186667 478.28,532.96 477.44,534.96 C476.6,536.96 476.18,539.013333 476.18,541.12 C476.18,543.76 476.56,545.98 477.32,547.78 C478.08,549.58 479.086667,551.08 480.34,552.28 C481.593333,553.48 483.02,554.453333 484.62,555.2 C486.22,555.946667 487.846667,556.586667 489.5,557.12 C491.153333,557.653333 492.78,558.146667 494.38,558.6 C495.98,559.053333 497.406667,559.606667 498.66,560.26 C499.913333,560.913333 500.92,561.72 501.68,562.68 C502.44,563.64 502.82,564.88 502.82,566.4 C502.82,569.12 501.98,571.206667 500.3,572.66 C498.62,574.113333 496.246667,574.84 493.18,574.84 C491.18,574.84 489.466667,574.566667 488.04,574.02 C486.613333,573.473333 485.373333,572.866667 484.32,572.2 C483.266667,571.533333 482.353333,570.926667 481.58,570.38 C480.806667,569.833333 480.086667,569.56 479.42,569.56 C478.913333,569.56 478.453333,569.686667 478.04,569.94 C477.626667,570.193333 477.273333,570.506667 476.98,570.88 L476.98,570.88 L473.86,576.04 C474.98,577.186667 476.253333,578.226667 477.68,579.16 C479.106667,580.093333 480.64,580.893333 482.28,581.56 C483.92,582.226667 485.633333,582.74 487.42,583.1 C489.206667,583.46 491.02,583.64 492.86,583.64 Z M535.78,583.64 C538.98,583.64 541.82,583.153333 544.3,582.18 C546.78,581.206667 548.88,579.873333 550.6,578.18 C552.32,576.486667 553.626667,574.5 554.52,572.22 C555.413333,569.94 555.86,567.493333 555.86,564.88 C555.86,562.48 555.48,560.44 554.72,558.76 C553.96,557.08 552.953333,555.66 551.7,554.5 C550.446667,553.34 549.02,552.38 547.42,551.62 C545.82,550.86 544.186667,550.193333 542.52,549.62 C540.853333,549.046667 539.22,548.506667 537.62,548 C536.02,547.493333 534.593333,546.92 533.34,546.28 C532.086667,545.64 531.08,544.866667 530.32,543.96 C529.56,543.053333 529.18,541.92 529.18,540.56 C529.18,539.493333 529.366667,538.513333 529.74,537.62 C530.113333,536.726667 530.68,535.96 531.44,535.32 C532.2,534.68 533.133333,534.18 534.24,533.82 C535.346667,533.46 536.646667,533.28 538.14,533.28 C539.793333,533.28 541.226667,533.486667 542.44,533.9 C543.653333,534.313333 544.713333,534.773333 545.62,535.28 C546.526667,535.786667 547.313333,536.246667 547.98,536.66 C548.646667,537.073333 549.246667,537.28 549.78,537.28 C550.313333,537.28 550.773333,537.16 551.16,536.92 C551.546667,536.68 551.886667,536.266667 552.18,535.68 L552.18,535.68 L554.82,530.6 C552.793333,528.68 550.34,527.186667 547.46,526.12 C544.58,525.053333 541.433333,524.52 538.02,524.52 C535.006667,524.52 532.326667,524.986667 529.98,525.92 C527.633333,526.853333 525.653333,528.093333 524.04,529.64 C522.426667,531.186667 521.2,532.96 520.36,534.96 C519.52,536.96 519.1,539.013333 519.1,541.12 C519.1,543.76 519.48,545.98 520.24,547.78 C521,549.58 522.006667,551.08 523.26,552.28 C524.513333,553.48 525.94,554.453333 527.54,555.2 C529.14,555.946667 530.766667,556.586667 532.42,557.12 C534.073333,557.653333 535.7,558.146667 537.3,558.6 C538.9,559.053333 540.326667,559.606667 541.58,560.26 C542.833333,560.913333 543.84,561.72 544.6,562.68 C545.36,563.64 545.74,564.88 545.74,566.4 C545.74,569.12 544.9,571.206667 543.22,572.66 C541.54,574.113333 539.166667,574.84 536.1,574.84 C534.1,574.84 532.386667,574.566667 530.96,574.02 C529.533333,573.473333 528.293333,572.866667 527.24,572.2 C526.186667,571.533333 525.273333,570.926667 524.5,570.38 C523.726667,569.833333 523.006667,569.56 522.34,569.56 C521.833333,569.56 521.373333,569.686667 520.96,569.94 C520.546667,570.193333 520.193333,570.506667 519.9,570.88 L519.9,570.88 L516.78,576.04 C517.9,577.186667 519.173333,578.226667 520.6,579.16 C522.026667,580.093333 523.56,580.893333 525.2,581.56 C526.84,582.226667 528.553333,582.74 530.34,583.1 C532.126667,583.46 533.94,583.64 535.78,583.64 Z M245.66,679 L245.66,641.64 C245.66,640.92 245.64,640.14 245.6,639.3 C245.56,638.46 245.486667,637.6 245.38,636.72 L245.38,636.72 L263.1,669.64 C263.5,670.386667 264.02,670.966667 264.66,671.38 C265.3,671.793333 266.046667,672 266.9,672 L266.9,672 L268.38,672 C269.233333,672 269.98,671.793333 270.62,671.38 C271.26,670.966667 271.78,670.386667 272.18,669.64 L272.18,669.64 L289.66,636.84 C289.58,637.693333 289.52,638.533333 289.48,639.36 C289.44,640.186667 289.42,640.946667 289.42,641.64 L289.42,641.64 L289.42,679 L298.9,679 L298.9,621.16 L290.78,621.16 C290.3,621.16 289.886667,621.173333 289.54,621.2 C289.193333,621.226667 288.88,621.293333 288.6,621.4 C288.32,621.506667 288.066667,621.68 287.84,621.92 C287.613333,622.16 287.393333,622.48 287.18,622.88 L287.18,622.88 L270.06,654.92 C269.606667,655.773333 269.18,656.666667 268.78,657.6 C268.38,658.533333 267.993333,659.48 267.62,660.44 C267.246667,659.506667 266.866667,658.58 266.48,657.66 C266.093333,656.74 265.673333,655.853333 265.22,655 L265.22,655 L247.94,622.88 C247.726667,622.48 247.5,622.16 247.26,621.92 C247.02,621.68 246.76,621.506667 246.48,621.4 C246.2,621.293333 245.886667,621.226667 245.54,621.2 C245.193333,621.173333 244.78,621.16 244.3,621.16 L244.3,621.16 L236.18,621.16 L236.18,679 L245.66,679 Z M336.78,679.64 C341.153333,679.64 345.14,678.9 348.74,677.42 C352.34,675.94 355.42,673.88 357.98,671.24 C360.54,668.6 362.526667,665.473333 363.94,661.86 C365.353333,658.246667 366.06,654.32 366.06,650.08 C366.06,645.84 365.353333,641.913333 363.94,638.3 C362.526667,634.686667 360.54,631.566667 357.98,628.94 C355.42,626.313333 352.34,624.253333 348.74,622.76 C345.14,621.266667 341.153333,620.52 336.78,620.52 C332.406667,620.52 328.413333,621.26 324.8,622.74 C321.186667,624.22 318.093333,626.28 315.52,628.92 C312.946667,631.56 310.953333,634.686667 309.54,638.3 C308.126667,641.913333 307.42,645.84 307.42,650.08 C307.42,654.32 308.126667,658.246667 309.54,661.86 C310.953333,665.473333 312.946667,668.6 315.52,671.24 C318.093333,673.88 321.186667,675.94 324.8,677.42 C328.413333,678.9 332.406667,679.64 336.78,679.64 Z M336.78,670.44 C333.953333,670.44 331.406667,669.973333 329.14,669.04 C326.873333,668.106667 324.946667,666.766667 323.36,665.02 C321.773333,663.273333 320.553333,661.14 319.7,658.62 C318.846667,656.1 318.42,653.253333 318.42,650.08 C318.42,646.906667 318.846667,644.06 319.7,641.54 C320.553333,639.02 321.773333,636.88 323.36,635.12 C324.946667,633.36 326.873333,632.013333 329.14,631.08 C331.406667,630.146667 333.953333,629.68 336.78,629.68 C339.606667,629.68 342.146667,630.146667 344.4,631.08 C346.653333,632.013333 348.566667,633.36 350.14,635.12 C351.713333,636.88 352.92,639.02 353.76,641.54 C354.6,644.06 355.02,646.906667 355.02,650.08 C355.02,653.253333 354.6,656.1 353.76,658.62 C352.92,661.14 351.713333,663.273333 350.14,665.02 C348.566667,666.766667 346.653333,668.106667 344.4,669.04 C342.146667,669.973333 339.606667,670.44 336.78,670.44 Z M396.62,679 C400.993333,679 404.98,678.293333 408.58,676.88 C412.18,675.466667 415.26,673.48 417.82,670.92 C420.38,668.36 422.366667,665.306667 423.78,661.76 C425.193333,658.213333 425.9,654.32 425.9,650.08 C425.9,645.84 425.193333,641.946667 423.78,638.4 C422.366667,634.853333 420.38,631.806667 417.82,629.26 C415.26,626.713333 412.18,624.726667 408.58,623.3 C404.98,621.873333 400.993333,621.16 396.62,621.16 L396.62,621.16 L374.54,621.16 L374.54,679 L396.62,679 Z M396.62,670.44 L385.38,670.44 L385.38,629.72 L396.62,629.72 C399.446667,629.72 401.986667,630.186667 404.24,631.12 C406.493333,632.053333 408.406667,633.393333 409.98,635.14 C411.553333,636.886667 412.766667,639.02 413.62,641.54 C414.473333,644.06 414.9,646.906667 414.9,650.08 C414.9,653.253333 414.473333,656.1 413.62,658.62 C412.766667,661.14 411.553333,663.273333 409.98,665.02 C408.406667,666.766667 406.493333,668.106667 404.24,669.04 C401.986667,669.973333 399.446667,670.44 396.62,670.44 L396.62,670.44 Z M470.82,679 L470.82,670.4 L445.18,670.4 L445.18,654.04 L465.38,654.04 L465.38,645.76 L445.18,645.76 L445.18,629.72 L470.82,629.72 L470.82,621.16 L434.34,621.16 L434.34,679 L470.82,679 Z M514.06,679 L514.06,670.12 L490.9,670.12 L490.9,621.16 L480.14,621.16 L480.14,679 L514.06,679 Z" id="BUSINESSMODEL" fill="#FFFFFF"></path>
            </g>
        </g>
    </g>
</svg>