<?xml version="1.0" encoding="UTF-8"?>
<svg width="746px" height="972px" viewBox="0 0 746 972" version="1.1" xmlns="http://www.w3.org/2000/svg" xmlns:xlink="http://www.w3.org/1999/xlink">
    <!-- Generator: Sketch 61 (89581) - https://sketch.com -->
    <title>MBM_badge_horizon</title>
    <desc>Created with Sketch.</desc>
    <g id="Page-1" stroke="none" stroke-width="1" fill="none" fill-rule="evenodd">
        <g id="Artboard" fill-rule="nonzero">
            <g id="MBM_badge_horizon">
                <path d="M37.7191026,123.898948 L352.044944,3.83285682 C365.547231,-1.27761894 380.452769,-1.27761894 393.955056,3.83285682 L708.280897,123.898948 C731.001605,132.582935 746,154.380173 746,178.695336 L746,793.353289 C746,817.668452 731.001605,839.465691 708.280897,848.149677 L393.955056,968.131982 C380.461391,973.289339 365.538609,973.289339 352.044944,968.131982 L37.7191026,848.149677 C14.9983948,839.465691 0,817.668452 0,793.353289 L0,178.695336 C0,154.380173 14.9983948,132.582935 37.7191026,123.898948 Z" id="Path" fill="#C82D35"></path>
                <path d="M60.2172038,141.758727 L374,25 L687.782796,141.758727 C710.755935,150.303228 726,172.230543 726,196.743455 L726,778.274 C726.037501,802.986152 710.588525,825.072766 687.363749,833.510182 L374,947 L60.6362513,833.510182 C37.4114751,825.072766 21.9624992,802.986152 22,778.274 L22,196.743455 C22,172.230543 37.2440649,150.303228 60.2172038,141.758727 Z" id="Path" fill="#D3575D"></path>
                <path d="M373,25 L373,947 L686.917836,835.270364 C710.370206,826.934807 726.022213,804.779699 726,779.950364 L726,192.133455 C725.986664,167.334867 710.341155,145.222511 686.917836,136.897273 L373,25 Z" id="Path" fill="#C82D35"></path>
                <path d="M532,889 L684.736905,835.578737 C708.277654,827.349979 724.030777,805.021241 723.964416,779.977014 L723.964416,207.774062 C724.264035,205.458226 722.638546,203.336814 720.333784,203.035755 C718.029023,202.734697 715.917756,204.367996 715.618137,206.683832 L532,889 Z" id="Path" fill="#962228"></path>
                <path d="M214,896 L61.2351747,834.31619 C37.6610358,826.082738 21.8984221,803.725428 22,778.666667 L22,192 L214,896 Z" id="Path" fill="#C82D35"></path>
                <path d="M202.78,583 L202.78,557.72 L229.9,557.72 L229.9,583 L240.74,583 L240.74,525.16 L229.9,525.16 L229.9,550.04 L202.78,550.04 L202.78,525.16 L191.94,525.16 L191.94,583 L202.78,583 Z M278.62,583.64 C282.993333,583.64 286.98,582.9 290.58,581.42 C294.18,579.94 297.26,577.88 299.82,575.24 C302.38,572.6 304.366667,569.473333 305.78,565.86 C307.193333,562.246667 307.9,558.32 307.9,554.08 C307.9,549.84 307.193333,545.913333 305.78,542.3 C304.366667,538.686667 302.38,535.566667 299.82,532.94 C297.26,530.313333 294.18,528.253333 290.58,526.76 C286.98,525.266667 282.993333,524.52 278.62,524.52 C274.246667,524.52 270.253333,525.26 266.64,526.74 C263.026667,528.22 259.933333,530.28 257.36,532.92 C254.786667,535.56 252.793333,538.686667 251.38,542.3 C249.966667,545.913333 249.26,549.84 249.26,554.08 C249.26,558.32 249.966667,562.246667 251.38,565.86 C252.793333,569.473333 254.786667,572.6 257.36,575.24 C259.933333,577.88 263.026667,579.94 266.64,581.42 C270.253333,582.9 274.246667,583.64 278.62,583.64 Z M278.62,574.44 C275.793333,574.44 273.246667,573.973333 270.98,573.04 C268.713333,572.106667 266.786667,570.766667 265.2,569.02 C263.613333,567.273333 262.393333,565.14 261.54,562.62 C260.686667,560.1 260.26,557.253333 260.26,554.08 C260.26,550.906667 260.686667,548.06 261.54,545.54 C262.393333,543.02 263.613333,540.88 265.2,539.12 C266.786667,537.36 268.713333,536.013333 270.98,535.08 C273.246667,534.146667 275.793333,533.68 278.62,533.68 C281.446667,533.68 283.986667,534.146667 286.24,535.08 C288.493333,536.013333 290.406667,537.36 291.98,539.12 C293.553333,540.88 294.76,543.02 295.6,545.54 C296.44,548.06 296.86,550.906667 296.86,554.08 C296.86,557.253333 296.44,560.1 295.6,562.62 C294.76,565.14 293.553333,567.273333 291.98,569.02 C290.406667,570.766667 288.493333,572.106667 286.24,573.04 C283.986667,573.973333 281.446667,574.44 278.62,574.44 Z M327.5,583 L327.5,560.4 L332.1,560.4 C333.166667,560.4 333.973333,560.546667 334.52,560.84 C335.066667,561.133333 335.566667,561.626667 336.02,562.32 L336.02,562.32 L348.18,580.84 C348.633333,581.533333 349.186667,582.066667 349.84,582.44 C350.493333,582.813333 351.286667,583 352.22,583 L352.22,583 L361.9,583 L347.42,561.64 C346.433333,560.2 345.26,559.093333 343.9,558.32 C345.926667,557.68 347.733333,556.826667 349.32,555.76 C350.906667,554.693333 352.24,553.453333 353.32,552.04 C354.4,550.626667 355.226667,549.053333 355.8,547.32 C356.373333,545.586667 356.66,543.746667 356.66,541.8 C356.66,539.346667 356.24,537.1 355.4,535.06 C354.56,533.02 353.24,531.266667 351.44,529.8 C349.64,528.333333 347.333333,527.193333 344.52,526.38 C341.706667,525.566667 338.326667,525.16 334.38,525.16 L334.38,525.16 L316.74,525.16 L316.74,583 L327.5,583 Z M334.22,552.68 L327.5,552.68 L327.5,533.48 L334.38,533.48 C338.353333,533.48 341.306667,534.266667 343.24,535.84 C345.173333,537.413333 346.14,539.666667 346.14,542.6 C346.14,544.066667 345.9,545.413333 345.42,546.64 C344.94,547.866667 344.213333,548.926667 343.24,549.82 C342.266667,550.713333 341.026667,551.413333 339.52,551.92 C338.013333,552.426667 336.246667,552.68 334.22,552.68 L334.22,552.68 Z M380.9,583 L380.9,525.16 L370.1,525.16 L370.1,583 L380.9,583 Z M434.5,583 L434.5,574.4 L404.5,574.4 L434.18,532.48 C434.873333,531.466667 435.22,530.346667 435.22,529.12 L435.22,529.12 L435.22,525.16 L392.42,525.16 L392.42,533.72 L421.3,533.72 L391.54,575.84 C391.246667,576.266667 391.006667,576.726667 390.82,577.22 C390.633333,577.713333 390.54,578.226667 390.54,578.76 L390.54,578.76 L390.54,583 L434.5,583 Z M467.5,583.64 C471.873333,583.64 475.86,582.9 479.46,581.42 C483.06,579.94 486.14,577.88 488.7,575.24 C491.26,572.6 493.246667,569.473333 494.66,565.86 C496.073333,562.246667 496.78,558.32 496.78,554.08 C496.78,549.84 496.073333,545.913333 494.66,542.3 C493.246667,538.686667 491.26,535.566667 488.7,532.94 C486.14,530.313333 483.06,528.253333 479.46,526.76 C475.86,525.266667 471.873333,524.52 467.5,524.52 C463.126667,524.52 459.133333,525.26 455.52,526.74 C451.906667,528.22 448.813333,530.28 446.24,532.92 C443.666667,535.56 441.673333,538.686667 440.26,542.3 C438.846667,545.913333 438.14,549.84 438.14,554.08 C438.14,558.32 438.846667,562.246667 440.26,565.86 C441.673333,569.473333 443.666667,572.6 446.24,575.24 C448.813333,577.88 451.906667,579.94 455.52,581.42 C459.133333,582.9 463.126667,583.64 467.5,583.64 Z M467.5,574.44 C464.673333,574.44 462.126667,573.973333 459.86,573.04 C457.593333,572.106667 455.666667,570.766667 454.08,569.02 C452.493333,567.273333 451.273333,565.14 450.42,562.62 C449.566667,560.1 449.14,557.253333 449.14,554.08 C449.14,550.906667 449.566667,548.06 450.42,545.54 C451.273333,543.02 452.493333,540.88 454.08,539.12 C455.666667,537.36 457.593333,536.013333 459.86,535.08 C462.126667,534.146667 464.673333,533.68 467.5,533.68 C470.326667,533.68 472.866667,534.146667 475.12,535.08 C477.373333,536.013333 479.286667,537.36 480.86,539.12 C482.433333,540.88 483.64,543.02 484.48,545.54 C485.32,548.06 485.74,550.906667 485.74,554.08 C485.74,557.253333 485.32,560.1 484.48,562.62 C483.64,565.14 482.433333,567.273333 480.86,569.02 C479.286667,570.766667 477.373333,572.106667 475.12,573.04 C472.866667,573.973333 470.326667,574.44 467.5,574.44 Z M514.74,583 L514.74,547.48 C514.74,546.786667 514.72,546.02 514.68,545.18 C514.64,544.34 514.58,543.493333 514.5,542.64 L514.5,542.64 L544.74,581.16 C545.273333,581.853333 545.82,582.333333 546.38,582.6 C546.94,582.866667 547.646667,583 548.5,583 L548.5,583 L554.06,583 L554.06,525.16 L544.58,525.16 L544.58,560.32 C544.58,561.093333 544.6,561.926667 544.64,562.82 C544.68,563.713333 544.753333,564.626667 544.86,565.56 L544.86,565.56 L514.5,526.88 C514.206667,526.506667 513.94,526.206667 513.7,525.98 C513.46,525.753333 513.213333,525.58 512.96,525.46 C512.706667,525.34 512.42,525.26 512.1,525.22 C511.78,525.18 511.38,525.16 510.9,525.16 L510.9,525.16 L505.26,525.16 L505.26,583 L514.74,583 Z" id="HORIZON" fill="#FFFFFF"></path>
            </g>
        </g>
    </g>
</svg>