<?xml version="1.0" encoding="UTF-8"?>
<svg width="746px" height="973px" viewBox="0 0 746 973" version="1.1" xmlns="http://www.w3.org/2000/svg" xmlns:xlink="http://www.w3.org/1999/xlink">
    <!-- Generator: Sketch 61 (89581) - https://sketch.com -->
    <title>MBM_badge_growth_system</title>
    <desc>Created with Sketch.</desc>
    <g id="Page-1" stroke="none" stroke-width="1" fill="none" fill-rule="evenodd">
        <g id="Artboard" fill-rule="nonzero">
            <g id="MBM_badge_growth_system">
                <path d="M37.7191026,124.026416 L352.044944,3.83680009 C365.547231,-1.27893336 380.452769,-1.27893336 393.955056,3.83680009 L708.280897,124.026416 C731.001605,132.719337 746,154.539 746,178.879179 L746,794.169496 C746,818.509675 731.001605,840.329338 708.280897,849.022259 L393.955056,969.128002 C380.461391,974.290666 365.538609,974.290666 352.044944,969.128002 L37.7191026,849.022259 C14.9983948,840.329338 0,818.509675 0,794.169496 L0,178.879179 C0,154.539 14.9983948,132.719337 37.7191026,124.026416 Z" id="Path" fill="#ADC700"></path>
                <path d="M59.2172038,141.758727 L373,25 L686.782796,141.758727 C709.755935,150.303228 725,172.230543 725,196.743455 L725,778.274 C725.037501,802.986152 709.588525,825.072766 686.363749,833.510182 L373,947 L59.6362513,833.510182 C36.4114751,825.072766 20.9624992,802.986152 21,778.274 L21,196.743455 C21,172.230543 36.2440649,150.303228 59.2172038,141.758727 Z" id="Path" fill="#BDD233"></path>
                <path d="M373,25 L373,947 L686.02855,835.270364 C709.414483,826.934807 725.02215,804.779699 725,779.950364 L725,192.133455 C724.986702,167.334867 709.385514,145.222511 686.02855,136.897273 L373,25 Z" id="Path" fill="#ADC700"></path>
                <path d="M532,889 L685.532409,835.578737 C709.195766,827.349979 725.030937,805.021241 724.96423,779.977014 L724.96423,207.774062 C725.26541,205.458226 723.631455,203.336814 721.314689,203.035755 C718.997924,202.734697 716.875661,204.367996 716.574481,206.683832 L532,889 Z" id="Path" fill="#829500"></path>
                <path d="M214,897 L60.4395246,835.31619 C36.7426037,827.082738 20.897893,804.725428 21,779.666667 L21,193 L214,897 Z" id="Path" fill="#ADC700"></path>
                <path d="M222.52,583.64 C224.893333,583.64 227.106667,583.513333 229.16,583.26 C231.213333,583.006667 233.14,582.626667 234.94,582.12 C236.74,581.613333 238.433333,580.966667 240.02,580.18 C241.606667,579.393333 243.133333,578.466667 244.6,577.4 L244.6,577.4 L244.6,554 L225.36,554 L225.36,560.08 C225.36,560.64 225.56,561.113333 225.96,561.5 C226.36,561.886667 226.906667,562.08 227.6,562.08 L227.6,562.08 L234.84,562.08 L234.84,572.6 C233.213333,573.373333 231.5,573.98 229.7,574.42 C227.9,574.86 225.786667,575.08 223.36,575.08 C220.613333,575.08 218.08,574.606667 215.76,573.66 C213.44,572.713333 211.44,571.346667 209.76,569.56 C208.08,567.773333 206.773333,565.58 205.84,562.98 C204.906667,560.38 204.44,557.413333 204.44,554.08 C204.44,550.986667 204.88,548.186667 205.76,545.68 C206.64,543.173333 207.893333,541.026667 209.52,539.24 C211.146667,537.453333 213.113333,536.08 215.42,535.12 C217.726667,534.16 220.306667,533.68 223.16,533.68 C224.92,533.68 226.473333,533.8 227.82,534.04 C229.166667,534.28 230.38,534.586667 231.46,534.96 C232.54,535.333333 233.526667,535.773333 234.42,536.28 C235.313333,536.786667 236.186667,537.293333 237.04,537.8 C237.706667,538.226667 238.36,538.44 239,538.44 C240.013333,538.44 240.826667,537.946667 241.44,536.96 L241.44,536.96 L244.56,532.08 C242.16,529.84 239.233333,528.02 235.78,526.62 C232.326667,525.22 228.24,524.52 223.52,524.52 C218.906667,524.52 214.746667,525.24 211.04,526.68 C207.333333,528.12 204.18,530.146667 201.58,532.76 C198.98,535.373333 196.973333,538.493333 195.56,542.12 C194.146667,545.746667 193.44,549.733333 193.44,554.08 C193.44,558.373333 194.166667,562.333333 195.62,565.96 C197.073333,569.586667 199.093333,572.706667 201.68,575.32 C204.266667,577.933333 207.333333,579.973333 210.88,581.44 C214.426667,582.906667 218.306667,583.64 222.52,583.64 Z M265.76,583 L265.76,560.4 L270.36,560.4 C271.426667,560.4 272.233333,560.546667 272.78,560.84 C273.326667,561.133333 273.826667,561.626667 274.28,562.32 L274.28,562.32 L286.44,580.84 C286.893333,581.533333 287.446667,582.066667 288.1,582.44 C288.753333,582.813333 289.546667,583 290.48,583 L290.48,583 L300.16,583 L285.68,561.64 C284.693333,560.2 283.52,559.093333 282.16,558.32 C284.186667,557.68 285.993333,556.826667 287.58,555.76 C289.166667,554.693333 290.5,553.453333 291.58,552.04 C292.66,550.626667 293.486667,549.053333 294.06,547.32 C294.633333,545.586667 294.92,543.746667 294.92,541.8 C294.92,539.346667 294.5,537.1 293.66,535.06 C292.82,533.02 291.5,531.266667 289.7,529.8 C287.9,528.333333 285.593333,527.193333 282.78,526.38 C279.966667,525.566667 276.586667,525.16 272.64,525.16 L272.64,525.16 L255,525.16 L255,583 L265.76,583 Z M272.48,552.68 L265.76,552.68 L265.76,533.48 L272.64,533.48 C276.613333,533.48 279.566667,534.266667 281.5,535.84 C283.433333,537.413333 284.4,539.666667 284.4,542.6 C284.4,544.066667 284.16,545.413333 283.68,546.64 C283.2,547.866667 282.473333,548.926667 281.5,549.82 C280.526667,550.713333 279.286667,551.413333 277.78,551.92 C276.273333,552.426667 274.506667,552.68 272.48,552.68 L272.48,552.68 Z M331.32,583.64 C335.693333,583.64 339.68,582.9 343.28,581.42 C346.88,579.94 349.96,577.88 352.52,575.24 C355.08,572.6 357.066667,569.473333 358.48,565.86 C359.893333,562.246667 360.6,558.32 360.6,554.08 C360.6,549.84 359.893333,545.913333 358.48,542.3 C357.066667,538.686667 355.08,535.566667 352.52,532.94 C349.96,530.313333 346.88,528.253333 343.28,526.76 C339.68,525.266667 335.693333,524.52 331.32,524.52 C326.946667,524.52 322.953333,525.26 319.34,526.74 C315.726667,528.22 312.633333,530.28 310.06,532.92 C307.486667,535.56 305.493333,538.686667 304.08,542.3 C302.666667,545.913333 301.96,549.84 301.96,554.08 C301.96,558.32 302.666667,562.246667 304.08,565.86 C305.493333,569.473333 307.486667,572.6 310.06,575.24 C312.633333,577.88 315.726667,579.94 319.34,581.42 C322.953333,582.9 326.946667,583.64 331.32,583.64 Z M331.32,574.44 C328.493333,574.44 325.946667,573.973333 323.68,573.04 C321.413333,572.106667 319.486667,570.766667 317.9,569.02 C316.313333,567.273333 315.093333,565.14 314.24,562.62 C313.386667,560.1 312.96,557.253333 312.96,554.08 C312.96,550.906667 313.386667,548.06 314.24,545.54 C315.093333,543.02 316.313333,540.88 317.9,539.12 C319.486667,537.36 321.413333,536.013333 323.68,535.08 C325.946667,534.146667 328.493333,533.68 331.32,533.68 C334.146667,533.68 336.686667,534.146667 338.94,535.08 C341.193333,536.013333 343.106667,537.36 344.68,539.12 C346.253333,540.88 347.46,543.02 348.3,545.54 C349.14,548.06 349.56,550.906667 349.56,554.08 C349.56,557.253333 349.14,560.1 348.3,562.62 C347.46,565.14 346.253333,567.273333 344.68,569.02 C343.106667,570.766667 341.193333,572.106667 338.94,573.04 C336.686667,573.973333 334.146667,574.44 331.32,574.44 Z M391.4,583 L404.16,543.48 C404.32,542.973333 404.486667,542.426667 404.66,541.84 C404.833333,541.253333 405,540.626667 405.16,539.96 C405.32,540.626667 405.486667,541.253333 405.66,541.84 C405.833333,542.426667 406,542.973333 406.16,543.48 L406.16,543.48 L418.8,583 L428.52,583 L446.48,525.16 L438.04,525.16 C437.133333,525.16 436.36,525.4 435.72,525.88 C435.08,526.36 434.666667,526.933333 434.48,527.6 L434.48,527.6 L424.64,562.2 C424.426667,563.026667 424.22,563.92 424.02,564.88 C423.82,565.84 423.626667,566.84 423.44,567.88 C423.013333,565.8 422.506667,563.906667 421.92,562.2 L421.92,562.2 L410.64,527.6 C410.4,526.853333 409.973333,526.26 409.36,525.82 C408.746667,525.38 407.973333,525.16 407.04,525.16 L407.04,525.16 L403.88,525.16 C402.973333,525.16 402.206667,525.413333 401.58,525.92 C400.953333,526.426667 400.533333,526.986667 400.32,527.6 L400.32,527.6 L388.96,562.2 C388.666667,563.053333 388.393333,563.98 388.14,564.98 C387.886667,565.98 387.653333,567.04 387.44,568.16 C387.253333,567.04 387.06,565.98 386.86,564.98 C386.66,563.98 386.44,563.053333 386.2,562.2 L386.2,562.2 L376.36,527.6 C376.146667,526.853333 375.726667,526.26 375.1,525.82 C374.473333,525.38 373.693333,525.16 372.76,525.16 L372.76,525.16 L363.72,525.16 L381.68,583 L391.4,583 Z M476.16,583 L476.16,534 L493.56,534 L493.56,525.16 L447.92,525.16 L447.92,534 L465.4,534 L465.4,583 L476.16,583 Z M511.24,583 L511.24,557.72 L538.36,557.72 L538.36,583 L549.2,583 L549.2,525.16 L538.36,525.16 L538.36,550.04 L511.24,550.04 L511.24,525.16 L500.4,525.16 L500.4,583 L511.24,583 Z M240.44,679.64 C243.64,679.64 246.48,679.153333 248.96,678.18 C251.44,677.206667 253.54,675.873333 255.26,674.18 C256.98,672.486667 258.286667,670.5 259.18,668.22 C260.073333,665.94 260.52,663.493333 260.52,660.88 C260.52,658.48 260.14,656.44 259.38,654.76 C258.62,653.08 257.613333,651.66 256.36,650.5 C255.106667,649.34 253.68,648.38 252.08,647.62 C250.48,646.86 248.846667,646.193333 247.18,645.62 C245.513333,645.046667 243.88,644.506667 242.28,644 C240.68,643.493333 239.253333,642.92 238,642.28 C236.746667,641.64 235.74,640.866667 234.98,639.96 C234.22,639.053333 233.84,637.92 233.84,636.56 C233.84,635.493333 234.026667,634.513333 234.4,633.62 C234.773333,632.726667 235.34,631.96 236.1,631.32 C236.86,630.68 237.793333,630.18 238.9,629.82 C240.006667,629.46 241.306667,629.28 242.8,629.28 C244.453333,629.28 245.886667,629.486667 247.1,629.9 C248.313333,630.313333 249.373333,630.773333 250.28,631.28 C251.186667,631.786667 251.973333,632.246667 252.64,632.66 C253.306667,633.073333 253.906667,633.28 254.44,633.28 C254.973333,633.28 255.433333,633.16 255.82,632.92 C256.206667,632.68 256.546667,632.266667 256.84,631.68 L256.84,631.68 L259.48,626.6 C257.453333,624.68 255,623.186667 252.12,622.12 C249.24,621.053333 246.093333,620.52 242.68,620.52 C239.666667,620.52 236.986667,620.986667 234.64,621.92 C232.293333,622.853333 230.313333,624.093333 228.7,625.64 C227.086667,627.186667 225.86,628.96 225.02,630.96 C224.18,632.96 223.76,635.013333 223.76,637.12 C223.76,639.76 224.14,641.98 224.9,643.78 C225.66,645.58 226.666667,647.08 227.92,648.28 C229.173333,649.48 230.6,650.453333 232.2,651.2 C233.8,651.946667 235.426667,652.586667 237.08,653.12 C238.733333,653.653333 240.36,654.146667 241.96,654.6 C243.56,655.053333 244.986667,655.606667 246.24,656.26 C247.493333,656.913333 248.5,657.72 249.26,658.68 C250.02,659.64 250.4,660.88 250.4,662.4 C250.4,665.12 249.56,667.206667 247.88,668.66 C246.2,670.113333 243.826667,670.84 240.76,670.84 C238.76,670.84 237.046667,670.566667 235.62,670.02 C234.193333,669.473333 232.953333,668.866667 231.9,668.2 C230.846667,667.533333 229.933333,666.926667 229.16,666.38 C228.386667,665.833333 227.666667,665.56 227,665.56 C226.493333,665.56 226.033333,665.686667 225.62,665.94 C225.206667,666.193333 224.853333,666.506667 224.56,666.88 L224.56,666.88 L221.44,672.04 C222.56,673.186667 223.833333,674.226667 225.26,675.16 C226.686667,676.093333 228.22,676.893333 229.86,677.56 C231.5,678.226667 233.213333,678.74 235,679.1 C236.786667,679.46 238.6,679.64 240.44,679.64 Z M294.48,679 L294.48,656.52 L315.52,621.16 L306,621.16 C305.093333,621.16 304.346667,621.413333 303.76,621.92 C303.173333,622.426667 302.733333,622.973333 302.44,623.56 L302.44,623.56 L291.92,642.88 C291.306667,644 290.78,645.073333 290.34,646.1 C289.9,647.126667 289.506667,648.146667 289.16,649.16 C288.786667,648.173333 288.373333,647.166667 287.92,646.14 C287.466667,645.113333 286.933333,644.026667 286.32,642.88 L286.32,642.88 L275.72,623.56 C275.346667,622.866667 274.886667,622.293333 274.34,621.84 C273.793333,621.386667 273.053333,621.16 272.12,621.16 L272.12,621.16 L262.64,621.16 L283.72,656.52 L283.72,679 L294.48,679 Z M335.72,679.64 C338.92,679.64 341.76,679.153333 344.24,678.18 C346.72,677.206667 348.82,675.873333 350.54,674.18 C352.26,672.486667 353.566667,670.5 354.46,668.22 C355.353333,665.94 355.8,663.493333 355.8,660.88 C355.8,658.48 355.42,656.44 354.66,654.76 C353.9,653.08 352.893333,651.66 351.64,650.5 C350.386667,649.34 348.96,648.38 347.36,647.62 C345.76,646.86 344.126667,646.193333 342.46,645.62 C340.793333,645.046667 339.16,644.506667 337.56,644 C335.96,643.493333 334.533333,642.92 333.28,642.28 C332.026667,641.64 331.02,640.866667 330.26,639.96 C329.5,639.053333 329.12,637.92 329.12,636.56 C329.12,635.493333 329.306667,634.513333 329.68,633.62 C330.053333,632.726667 330.62,631.96 331.38,631.32 C332.14,630.68 333.073333,630.18 334.18,629.82 C335.286667,629.46 336.586667,629.28 338.08,629.28 C339.733333,629.28 341.166667,629.486667 342.38,629.9 C343.593333,630.313333 344.653333,630.773333 345.56,631.28 C346.466667,631.786667 347.253333,632.246667 347.92,632.66 C348.586667,633.073333 349.186667,633.28 349.72,633.28 C350.253333,633.28 350.713333,633.16 351.1,632.92 C351.486667,632.68 351.826667,632.266667 352.12,631.68 L352.12,631.68 L354.76,626.6 C352.733333,624.68 350.28,623.186667 347.4,622.12 C344.52,621.053333 341.373333,620.52 337.96,620.52 C334.946667,620.52 332.266667,620.986667 329.92,621.92 C327.573333,622.853333 325.593333,624.093333 323.98,625.64 C322.366667,627.186667 321.14,628.96 320.3,630.96 C319.46,632.96 319.04,635.013333 319.04,637.12 C319.04,639.76 319.42,641.98 320.18,643.78 C320.94,645.58 321.946667,647.08 323.2,648.28 C324.453333,649.48 325.88,650.453333 327.48,651.2 C329.08,651.946667 330.706667,652.586667 332.36,653.12 C334.013333,653.653333 335.64,654.146667 337.24,654.6 C338.84,655.053333 340.266667,655.606667 341.52,656.26 C342.773333,656.913333 343.78,657.72 344.54,658.68 C345.3,659.64 345.68,660.88 345.68,662.4 C345.68,665.12 344.84,667.206667 343.16,668.66 C341.48,670.113333 339.106667,670.84 336.04,670.84 C334.04,670.84 332.326667,670.566667 330.9,670.02 C329.473333,669.473333 328.233333,668.866667 327.18,668.2 C326.126667,667.533333 325.213333,666.926667 324.44,666.38 C323.666667,665.833333 322.946667,665.56 322.28,665.56 C321.773333,665.56 321.313333,665.686667 320.9,665.94 C320.486667,666.193333 320.133333,666.506667 319.84,666.88 L319.84,666.88 L316.72,672.04 C317.84,673.186667 319.113333,674.226667 320.54,675.16 C321.966667,676.093333 323.5,676.893333 325.14,677.56 C326.78,678.226667 328.493333,678.74 330.28,679.1 C332.066667,679.46 333.88,679.64 335.72,679.64 Z M387.4,679 L387.4,630 L404.8,630 L404.8,621.16 L359.16,621.16 L359.16,630 L376.64,630 L376.64,679 L387.4,679 Z M448.12,679 L448.12,670.4 L422.48,670.4 L422.48,654.04 L442.68,654.04 L442.68,645.76 L422.48,645.76 L422.48,629.72 L448.12,629.72 L448.12,621.16 L411.64,621.16 L411.64,679 L448.12,679 Z M466.92,679 L466.92,641.64 C466.92,640.92 466.9,640.14 466.86,639.3 C466.82,638.46 466.746667,637.6 466.64,636.72 L466.64,636.72 L484.36,669.64 C484.76,670.386667 485.28,670.966667 485.92,671.38 C486.56,671.793333 487.306667,672 488.16,672 L488.16,672 L489.64,672 C490.493333,672 491.24,671.793333 491.88,671.38 C492.52,670.966667 493.04,670.386667 493.44,669.64 L493.44,669.64 L510.92,636.84 C510.84,637.693333 510.78,638.533333 510.74,639.36 C510.7,640.186667 510.68,640.946667 510.68,641.64 L510.68,641.64 L510.68,679 L520.16,679 L520.16,621.16 L512.04,621.16 C511.56,621.16 511.146667,621.173333 510.8,621.2 C510.453333,621.226667 510.14,621.293333 509.86,621.4 C509.58,621.506667 509.326667,621.68 509.1,621.92 C508.873333,622.16 508.653333,622.48 508.44,622.88 L508.44,622.88 L491.32,654.92 C490.866667,655.773333 490.44,656.666667 490.04,657.6 C489.64,658.533333 489.253333,659.48 488.88,660.44 C488.506667,659.506667 488.126667,658.58 487.74,657.66 C487.353333,656.74 486.933333,655.853333 486.48,655 L486.48,655 L469.2,622.88 C468.986667,622.48 468.76,622.16 468.52,621.92 C468.28,621.68 468.02,621.506667 467.74,621.4 C467.46,621.293333 467.146667,621.226667 466.8,621.2 C466.453333,621.173333 466.04,621.16 465.56,621.16 L465.56,621.16 L457.44,621.16 L457.44,679 L466.92,679 Z" id="GROWTHSYSTEM" fill="#FFFFFF"></path>
            </g>
        </g>
    </g>
</svg>