<svg xmlns="http://www.w3.org/2000/svg" width="18.406" height="18.406" viewBox="0 0 18.406 18.406">
  <defs>
    <style>
      .cls-1 {
        fill: #2e8b57;
      }
    </style>
  </defs>
  <path id="check-circle-svg" class="cls-1" d="M9.2-7.125a8.921,8.921,0,0,0-1.243-4.6A9.3,9.3,0,0,0,4.6-15.085,8.921,8.921,0,0,0,0-16.328a8.921,8.921,0,0,0-4.6,1.243A9.3,9.3,0,0,0-7.96-11.727,8.921,8.921,0,0,0-9.2-7.125a8.921,8.921,0,0,0,1.243,4.6A9.3,9.3,0,0,0-4.6.835,8.921,8.921,0,0,0,0,2.078,8.921,8.921,0,0,0,4.6.835,9.3,9.3,0,0,0,7.96-2.523,8.921,8.921,0,0,0,9.2-7.125ZM-1.076-2.264a.494.494,0,0,1-.408.186.494.494,0,0,1-.408-.186L-5.752-6.123a.494.494,0,0,1-.186-.408.494.494,0,0,1,.186-.408l.816-.854a.587.587,0,0,1,.427-.186.587.587,0,0,1,.427.186l2.6,2.6,5.566-5.566a.587.587,0,0,1,.427-.186.587.587,0,0,1,.427.186l.816.854a.494.494,0,0,1,.186.408.494.494,0,0,1-.186.408Z" transform="translate(9.203 16.328)"/>
</svg>
