<svg xmlns="http://www.w3.org/2000/svg" width="16" height="11.938" viewBox="0 0 16 11.938">
  <defs>
    <style>
      .cls-1 {
        fill: #2e8b57;
      }
    </style>
  </defs>
  <path id="check-svg" class="cls-1" d="M-2.563-.281A.713.713,0,0,0-2-.031a.713.713,0,0,0,.562-.25L7.781-9.469A.761.761,0,0,0,8-10.031a.761.761,0,0,0-.219-.562L6.625-11.719a.7.7,0,0,0-.547-.25.794.794,0,0,0-.578.25L-2-4.219l-3.5-3.5a.794.794,0,0,0-.578-.25.7.7,0,0,0-.547.25L-7.781-6.594A.761.761,0,0,0-8-6.031a.761.761,0,0,0,.219.562Z" transform="translate(8 11.969)"/>
</svg>
