<svg id="Icons" xmlns="http://www.w3.org/2000/svg" viewBox="0 0 24 24"><defs><style>.cls-1{fill:none;stroke:#fff;stroke-miterlimit:10;}.cls-2{fill:#fff;}</style></defs><title>Earth</title><circle class="cls-1" cx="12" cy="12" r="9.5"/><path class="cls-2" d="M11,13l1,1c.47.47,2.33,0,3,0,1,.67,2.69.84,3,2,.19.72-.67,2.33-1,3v1l-2,1H13V19a4.83,4.83,0,0,1-1-1,6.85,6.85,0,0,1,0-2L9,14c-.8-.8-2.2-1.2-3-2L3,9c.67-1.67,1.33-2.33,2-4l5-2,1,1,1-1.12L14,3V4s1.06.65,1,1c-.09.55-2,1-2,1V7l1,1V9H13s-1,.65-1,1c.09.9.91.3,1,1,.05.35-1,1-1,1l-1-1s-1.71.52-2,1"/><path class="cls-2" d="M21,8s-1.79.87-2,1a3.6,3.6,0,0,0-1,2,18.42,18.42,0,0,0,0,2l1,1,2,1Z"/></svg>