<svg xmlns="http://www.w3.org/2000/svg" width="18.406" height="18.406" viewBox="0 0 18.406 18.406">
  <defs>
    <style>
      .cls-1 {
        fill: #dc143c;
      }
    </style>
  </defs>
  <path id="exclamation-circle-svg" class="cls-1" d="M9.2-7.125a8.921,8.921,0,0,0-1.243-4.6A9.3,9.3,0,0,0,4.6-15.085,8.921,8.921,0,0,0,0-16.328a8.921,8.921,0,0,0-4.6,1.243A9.3,9.3,0,0,0-7.96-11.727,8.921,8.921,0,0,0-9.2-7.125a8.921,8.921,0,0,0,1.243,4.6A9.3,9.3,0,0,0-4.6.835,8.921,8.921,0,0,0,0,2.078,8.921,8.921,0,0,0,4.6.835,9.3,9.3,0,0,0,7.96-2.523,8.921,8.921,0,0,0,9.2-7.125ZM0-5.27a1.644,1.644,0,0,1,1.206.5,1.644,1.644,0,0,1,.5,1.206,1.644,1.644,0,0,1-.5,1.206A1.644,1.644,0,0,1,0-1.855a1.644,1.644,0,0,1-1.206-.5,1.644,1.644,0,0,1-.5-1.206,1.644,1.644,0,0,1,.5-1.206A1.644,1.644,0,0,1,0-5.27Zm-1.633-6.123a.476.476,0,0,1,.13-.353.429.429,0,0,1,.315-.13H1.187a.429.429,0,0,1,.315.13.476.476,0,0,1,.13.353l-.3,5.047a.39.39,0,0,1-.13.278.429.429,0,0,1-.315.13H-.891a.429.429,0,0,1-.315-.13.39.39,0,0,1-.13-.278Z" transform="translate(9.203 16.328)"/>
</svg>
