<svg id="Icons" xmlns="http://www.w3.org/2000/svg" viewBox="0 0 24 24"><defs><style>.cls-1,.cls-2{fill:#00508f;}.cls-1{stroke:#00508f;stroke-miterlimit:10;stroke-width:2px;}</style></defs><title>maximize_blue</title><line class="cls-1" x1="5" y1="19" x2="19" y2="5"/><line class="cls-1" x1="5" y1="5" x2="19" y2="19"/><path class="cls-2" d="M15.66,21.75a.4.4,0,0,1-.38-.25.42.42,0,0,1,.09-.45l5.68-5.68a.39.39,0,0,1,.28-.12.41.41,0,0,1,.42.41v5.68a.41.41,0,0,1-.41.41Z"/><path class="cls-2" d="M21.33,15.5a.16.16,0,0,1,.17.16v5.68a.16.16,0,0,1-.16.16H15.66a.15.15,0,0,1-.15-.1.17.17,0,0,1,0-.18l5.67-5.67a.18.18,0,0,1,.11-.05m0-.5a.67.67,0,0,0-.46.19l-5.68,5.68A.66.66,0,0,0,15.66,22h5.68a.67.67,0,0,0,.66-.66V15.66a.66.66,0,0,0-.67-.66Z"/><path class="cls-2" d="M21.33,8.75a.39.39,0,0,1-.28-.12L15.37,3a.42.42,0,0,1-.09-.45.4.4,0,0,1,.38-.25h5.68a.41.41,0,0,1,.41.41V8.34a.4.4,0,0,1-.13.3.42.42,0,0,1-.29.11Z"/><path class="cls-2" d="M21.34,2.5a.16.16,0,0,1,.16.16V8.34a.16.16,0,0,1-.17.16.18.18,0,0,1-.11-.05L15.55,2.78a.17.17,0,0,1,0-.18.15.15,0,0,1,.15-.1h5.68m0-.5H15.66a.66.66,0,0,0-.47,1.13l5.68,5.68a.67.67,0,0,0,.46.19A.66.66,0,0,0,22,8.34V2.66A.67.67,0,0,0,21.34,2Z"/><path class="cls-2" d="M2.67,8.75a.41.41,0,0,1-.42-.41V2.66a.41.41,0,0,1,.41-.41H8.34a.4.4,0,0,1,.38.25A.42.42,0,0,1,8.63,3L3,8.63A.39.39,0,0,1,2.67,8.75Z"/><path class="cls-2" d="M8.34,2.5a.15.15,0,0,1,.15.1.17.17,0,0,1,0,.18L2.78,8.45a.18.18,0,0,1-.11.05.16.16,0,0,1-.17-.16V2.66a.16.16,0,0,1,.16-.16H8.34m0-.5H2.66A.67.67,0,0,0,2,2.66V8.34A.66.66,0,0,0,2.67,9a.67.67,0,0,0,.46-.19L8.81,3.13A.66.66,0,0,0,8.34,2Z"/><path class="cls-2" d="M2.66,21.75a.41.41,0,0,1-.41-.41V15.66a.41.41,0,0,1,.42-.41.39.39,0,0,1,.28.12l5.68,5.68a.42.42,0,0,1,.09.45.4.4,0,0,1-.38.25Z"/><path class="cls-2" d="M2.67,15.5a.18.18,0,0,1,.11.05l5.67,5.67a.17.17,0,0,1,0,.18.15.15,0,0,1-.15.1H2.66a.16.16,0,0,1-.16-.16V15.66a.16.16,0,0,1,.17-.16m0-.5a.66.66,0,0,0-.67.66v5.68a.67.67,0,0,0,.66.66H8.34a.66.66,0,0,0,.47-1.13L3.13,15.19A.67.67,0,0,0,2.67,15Z"/></svg>