<?xml version="1.0" encoding="UTF-8" standalone="no"?>
<svg width="60px" height="60px" viewBox="0 0 60 60" version="1.1" xmlns="http://www.w3.org/2000/svg" xmlns:xlink="http://www.w3.org/1999/xlink">
    <!-- Generator: Sketch 3.8.3 (29802) - http://www.bohemiancoding.com/sketch -->
    <title>icon_product copy 2</title>
    <desc>Created with Sketch.</desc>
    <defs></defs>
    <g id="Page-1" stroke="none" stroke-width="1" fill="none" fill-rule="evenodd">
        <g id="icon_product-copy-2">
            <g id="Page-1">
                <path d="M30,0 C13.431,0 0,13.431 0,30 C0,46.569 13.431,60 30,60 C46.569,60 60,46.569 60,30 C60,13.431 46.569,0 30,0" id="Fill-1" fill="#293A43"></path>
                <path d="M30,57 C37.364,57 44.036,54.048 48.908,49.268 L11.092,49.268 C15.964,54.048 22.636,57 30,57" id="Fill-3" fill="#FFFFFF"></path>
                <path d="M19.0218,28.8701 C23.8198,28.3111 27.4098,29.4851 29.1978,34.3661 C30.0248,27.7261 33.9698,24.2801 40.1498,22.9961 C42.4148,29.2611 40.2298,36.5761 31.1998,38.9521 C31.4828,40.6061 31.7658,42.2581 32.0598,43.9731 C34.0238,42.2991 36.2228,41.5921 38.7848,42.5351 C37.9218,45.4451 35.8778,46.7261 32.1748,46.7381 C32.0478,48.1651 31.9198,49.5971 31.7868,51.0851 L29.0468,51.0851 C29.1458,49.7641 29.2908,48.4641 29.3308,47.1601 C29.4068,44.6661 29.3068,42.1861 28.5098,39.7831 C28.2458,38.9891 27.8388,38.5031 26.9568,38.2071 C22.5968,36.7411 20.0048,33.6551 19.0388,29.1781 C19.0178,29.0781 19.0268,28.9711 19.0218,28.8701" id="Fill-5" fill="#FFFFFF"></path>
            </g>
        </g>
    </g>
</svg>