<svg id="Icons" xmlns="http://www.w3.org/2000/svg" viewBox="0 0 24 24"><defs><style>.cls-1{fill:#00508f;}</style></defs><title>shrink_blue</title><path class="cls-1" d="M15.67,21.75a.41.41,0,0,1-.42-.41V15.66a.41.41,0,0,1,.41-.41h5.68a.4.4,0,0,1,.38.25.42.42,0,0,1-.09.45L16,21.63A.39.39,0,0,1,15.67,21.75Z"/><path class="cls-1" d="M21.34,15.5a.15.15,0,0,1,.15.1.17.17,0,0,1,0,.18l-5.67,5.67a.18.18,0,0,1-.11.05.16.16,0,0,1-.17-.16V15.66a.16.16,0,0,1,.16-.16h5.68m0-.5H15.66a.67.67,0,0,0-.66.66v5.68a.66.66,0,0,0,.67.66.67.67,0,0,0,.46-.19l5.68-5.68A.66.66,0,0,0,21.34,15Z"/><path class="cls-1" d="M2.66,8.75a.4.4,0,0,1-.38-.25.42.42,0,0,1,.09-.45L8.05,2.37a.39.39,0,0,1,.28-.12.41.41,0,0,1,.42.41V8.34a.41.41,0,0,1-.41.41Z"/><path class="cls-1" d="M8.33,2.5a.16.16,0,0,1,.17.16V8.34a.16.16,0,0,1-.16.16H2.66a.15.15,0,0,1-.15-.1.17.17,0,0,1,0-.18L8.22,2.55a.18.18,0,0,1,.11,0m0-.5a.67.67,0,0,0-.46.19L2.19,7.87A.66.66,0,0,0,2.66,9H8.34A.67.67,0,0,0,9,8.34V2.66A.66.66,0,0,0,8.33,2Z"/></svg>