<?xml version="1.0" encoding="UTF-8" standalone="no"?>
<svg width="60px" height="60px" viewBox="0 0 60 60" version="1.1" xmlns="http://www.w3.org/2000/svg" xmlns:xlink="http://www.w3.org/1999/xlink">
    <!-- Generator: Sketch 3.8.3 (29802) - http://www.bohemiancoding.com/sketch -->
    <title>icon_steady copy 2</title>
    <desc>Created with Sketch.</desc>
    <defs></defs>
    <g id="Page-1" stroke="none" stroke-width="1" fill="none" fill-rule="evenodd">
        <g id="icon_steady-copy-2">
            <g id="Page-1">
                <path d="M30,0 C13.431,0 0,13.431 0,30 C0,46.569 13.431,60 30,60 C46.569,60 60,46.569 60,30 C60,13.431 46.569,0 30,0" id="Fill-1" fill="#293A43"></path>
                <path d="M30,57 C37.364,57 44.036,54.048 48.908,49.268 L11.092,49.268 C15.964,54.048 22.636,57 30,57" id="Fill-3" fill="#FFFFFF"></path>
                <path d="M13.9298,18.3845 C14.2268,18.1765 14.4528,18.0175 14.7108,17.8375 C14.4978,17.7425 14.3308,17.6685 14.1558,17.5905 C14.0818,17.8495 14.0198,18.0675 13.9298,18.3845 M41.9098,16.7285 C41.5568,16.0515 40.9298,15.4205 41.2378,14.4455 C41.0708,14.4555 40.8478,14.4075 40.7958,14.4815 C40.3388,15.1245 39.9138,15.7905 39.4838,16.4405 C40.3298,16.5405 41.1158,16.6345 41.9098,16.7285 M17.3378,19.0985 C17.5488,20.8785 16.3048,21.3045 15.0478,21.6895 C15.6678,22.3475 16.2598,22.9745 16.8798,23.6335 C16.8788,22.1165 17.2098,20.7015 17.7978,19.3155 C17.6618,19.2505 17.5348,19.1915 17.3378,19.0985 M18.3588,15.9595 C17.2538,16.1355 16.6018,15.4085 15.9728,14.7935 C15.6318,15.1585 15.3118,15.5005 14.9728,15.8635 C16.0478,16.3005 17.1488,16.7475 18.2828,17.2085 C18.3098,16.7545 18.3328,16.3805 18.3588,15.9595 M17.8548,24.5085 C19.2768,25.8485 20.7008,27.1905 22.0688,28.4785 C22.0598,28.3385 22.4588,28.0835 22.0978,27.8005 C20.6798,26.6865 19.5818,25.3485 19.0958,23.5955 C18.7288,23.8655 18.3338,24.1555 17.8548,24.5085 M20.5138,13.8135 C20.5958,15.0365 20.6778,16.2455 20.7568,17.4285 L23.4678,17.4285 C23.2568,17.2445 23.1248,17.1495 23.0168,17.0335 C22.3548,16.3175 21.6538,15.6075 21.3498,14.6645 C21.2048,14.2135 21.0148,13.9345 20.5138,13.8135 M24.1498,11.4435 C23.7938,12.1865 23.4238,12.9625 23.0918,13.6565 C24.0288,14.0335 25.0138,14.3875 25.9608,14.8225 C26.6508,15.1395 27.0038,15.7475 26.9778,16.5185 C26.9678,16.8275 26.8568,17.1335 26.7898,17.4475 L28.7028,17.4475 C28.5018,16.9225 28.3038,16.4405 28.1348,15.9485 C28.0548,15.7135 27.9218,15.6475 27.6858,15.5735 C27.2958,15.4505 26.8768,15.2745 26.5888,14.9975 C25.5218,13.9745 24.5808,12.8485 24.1498,11.4435 M30.0008,14.9325 C31.1668,16.4865 32.3048,18.0025 33.4318,19.5045 C33.8878,19.0615 34.2598,18.6175 34.7118,18.2825 C35.4578,17.7305 35.4768,17.0905 35.1418,16.3165 C35.0488,16.1015 34.9708,16.0265 34.7428,16.0385 C34.1028,16.0735 33.5728,15.8195 33.1708,15.3315 C32.8478,14.9385 32.5428,14.5275 32.2598,14.1035 C31.9838,13.6905 31.7458,13.2505 31.4728,12.7915 C31.1668,13.6555 30.9778,14.5465 30.0008,14.9325 M19.5368,23.1675 C20.8438,23.0655 21.9558,23.6345 23.1408,24.1155 C23.1668,24.0745 23.1918,24.0195 23.2288,23.9755 C23.9288,23.1305 24.6648,22.3235 25.6048,21.7315 C25.6778,21.6855 25.7548,21.5805 25.7578,21.4995 C25.7728,21.0695 25.7648,20.6385 25.7648,20.1845 C24.2268,20.1185 22.7228,20.0535 21.2088,19.9885 C21.3258,21.4505 20.2358,22.1935 19.5368,23.1675 M37.0068,20.2115 C36.4918,20.9965 36.0148,21.7435 35.5138,22.4745 C35.3578,22.7035 35.3678,22.8675 35.5108,23.0975 C36.4908,24.6665 37.4548,26.2455 38.4258,27.8205 C38.4848,27.9155 38.5558,28.0035 38.6388,28.1195 C39.5948,27.4395 40.5298,26.7755 41.4878,26.0945 C40.6748,25.4685 40.5608,24.6685 40.7728,23.7605 C41.0478,22.5785 41.3568,21.4095 42.0698,20.4035 C42.5158,19.7745 43.0168,19.7985 43.3808,20.4815 C43.6248,20.9395 43.8158,21.4365 43.9548,21.9365 C44.1388,22.6035 44.2488,23.2895 44.3938,23.9865 C44.6728,23.8865 44.8088,23.7295 44.7898,23.4085 C44.7188,22.2165 44.6598,21.0235 44.6228,19.8295 C44.6098,19.4245 44.5508,19.1565 44.0908,18.9935 C43.7428,18.8715 43.4568,18.5425 43.1778,18.2695 C42.8778,17.9765 42.6188,17.6425 42.3988,17.3915 C42.1088,17.7495 41.8768,18.1805 41.5208,18.4465 C40.7318,19.0365 39.8938,19.5675 39.0498,20.0785 C38.4268,20.4555 37.7478,20.5915 37.0068,20.2115 M26.6078,24.7195 C26.1998,25.9225 26.0528,27.2715 24.4388,27.4645 C24.5968,28.5275 24.7678,29.5605 24.8948,30.5985 C24.9468,31.0205 25.1248,31.3145 25.4458,31.5815 C25.9378,31.9915 26.3938,32.4465 26.8658,32.8805 C27.7328,33.6795 28.5998,34.4765 29.4998,35.3045 C29.5308,35.1925 29.5588,35.1285 29.5668,35.0625 C29.6768,34.1555 30.1588,33.5135 30.9278,33.0365 C32.4398,32.1005 33.9348,31.1375 35.4368,30.1855 C35.5688,30.1025 35.6978,30.0155 35.8468,29.9185 C35.2598,28.9325 34.6948,27.9825 34.1138,27.0075 C34.0258,27.1175 33.9598,27.2105 33.8838,27.2945 C33.4438,27.7805 32.8828,28.0665 32.2448,27.9295 C30.8038,27.6205 29.4728,27.0255 28.3418,26.0635 C27.6998,25.5165 27.8038,24.9825 28.6158,24.7085 C29.2308,24.5005 29.8848,24.3845 30.5298,24.2955 C31.1388,24.2115 31.7608,24.2155 32.4298,24.1775 C31.7478,23.0325 31.0758,21.9425 30.4478,20.8285 C30.2308,20.4445 29.9908,20.2545 29.5498,20.3805 C29.1908,21.7265 28.6368,22.9855 27.7888,24.1005 C27.5028,24.4775 27.1848,24.8325 26.6078,24.7195 M20.6158,30.6805 C19.8728,30.0965 19.2398,29.5585 18.5608,29.0855 C18.3138,28.9135 17.9598,28.8875 17.6508,28.8125 C16.1498,28.4515 14.6468,28.0965 13.1448,27.7405 C13.0618,27.7205 12.9768,27.7155 12.8558,27.6975 C12.7548,28.8855 11.9478,29.3885 10.9448,29.6425 C10.0168,29.8785 9.0758,30.0745 8.1298,30.2255 C7.7268,30.2905 7.2268,30.3005 6.9878,29.8675 C6.7488,29.4355 7.0318,29.0255 7.2948,28.7105 C7.8448,28.0535 8.4498,27.4425 9.0378,26.8175 C9.1548,26.6925 9.2948,26.5895 9.3928,26.5035 C8.7988,25.8045 8.2038,25.1475 7.6618,24.4475 C7.4078,24.1195 7.2158,23.7275 7.0678,23.3375 C6.8658,22.8045 7.0858,22.4645 7.6528,22.4465 C8.0988,22.4325 8.5658,22.4535 8.9908,22.5745 C9.7858,22.8015 10.5808,23.0615 11.3348,23.3995 C12.7128,24.0175 13.0258,24.8445 12.4938,26.2895 C12.7708,26.3185 13.0388,26.3565 13.3078,26.3705 C13.5828,26.3845 13.8598,26.3735 14.1598,26.3735 C13.5838,25.0245 13.2768,23.6145 13.2558,22.1115 C12.9228,22.1115 12.6048,22.1225 12.2878,22.1095 C11.4928,22.0765 11.2148,21.6395 11.6258,20.9525 C11.9888,20.3455 12.4608,19.8035 12.7978,19.3495 C11.8228,19.3895 10.7178,19.4545 9.6128,19.4705 C9.2408,19.4755 8.8568,19.3915 8.4968,19.2845 C7.8008,19.0785 7.6488,18.6205 8.1388,18.0755 C8.5338,17.6355 9.0248,17.2815 9.4788,16.8955 C9.6088,16.7845 9.7588,16.6985 9.9208,16.5855 C8.8368,15.8085 8.0608,14.7985 7.3888,13.7045 C7.1998,13.3975 7.0498,13.0545 6.9528,12.7085 C6.7988,12.1605 7.0398,11.8355 7.6088,11.8625 C8.0968,11.8855 8.5968,11.9665 9.0628,12.1145 C10.2148,12.4795 11.3458,12.9065 12.2768,13.8035 C12.3618,13.3755 12.4168,12.9625 12.5288,12.5645 C12.7088,11.9205 12.9178,11.2845 13.1348,10.6515 C13.2098,10.4335 13.3278,10.2255 13.4548,10.0325 C13.9138,9.3375 14.3818,9.3255 14.8268,10.0225 C15.0368,10.3505 15.1648,10.7295 15.3458,11.0775 C15.3978,11.1785 15.4898,11.2965 15.5898,11.3295 C16.5388,11.6525 17.4938,11.9585 18.4478,12.2665 C18.4828,12.2775 18.5268,12.2595 18.6278,12.2495 C18.5028,12.1845 18.4308,12.1435 18.3558,12.1085 C17.5618,11.7365 17.1488,11.0865 17.2178,10.2195 C17.3168,8.9895 17.6228,7.8055 18.1578,6.6915 C18.3428,6.3045 18.5328,5.8295 19.0428,5.8175 C19.5858,5.8055 19.8108,6.2975 19.9498,6.7055 C20.2918,7.7075 20.5588,8.7345 20.8468,9.7535 C20.8978,9.9325 20.9048,10.1225 20.9378,10.3465 C21.3438,9.9995 21.7008,9.6565 22.0948,9.3665 C22.5038,9.0655 22.9288,8.7715 23.3848,8.5525 C24.1308,8.1945 24.5598,8.4745 24.5268,9.2955 C24.5048,9.8295 24.3878,10.3595 24.3108,10.9135 C24.8838,10.5985 25.4838,10.7685 26.0698,10.9335 C26.5588,11.0705 27.0368,11.2545 27.5088,11.4455 C28.1508,11.7055 28.1458,11.7165 28.5518,11.1425 C28.5358,11.1235 28.5198,11.0895 28.5028,11.0885 C27.1068,11.0125 26.4068,10.3195 26.4638,8.9175 C26.5068,7.8745 26.6508,6.8325 26.8178,5.8015 C26.8898,5.3565 27.0418,4.8085 27.5718,4.7195 C28.1048,4.6295 28.3798,5.1195 28.6418,5.4965 C29.3318,6.4865 29.7928,7.5875 30.1038,8.7485 C30.1738,9.0095 30.1548,9.2935 30.1778,9.5885 C30.3808,9.4705 30.5718,9.3425 30.7778,9.2435 C31.4318,8.9285 31.8308,9.1525 31.8848,9.8715 C31.9078,10.1885 31.8888,10.5095 31.8888,10.8135 C32.4538,10.9945 33.0038,11.1705 33.5538,11.3475 C33.8448,10.6915 34.0998,10.0105 34.4428,9.3755 C34.7238,8.8555 35.0638,8.3515 35.4598,7.9135 C35.8858,7.4415 36.3178,7.5375 36.5998,8.1105 C37.0548,9.0355 37.1178,10.0445 37.1728,11.0495 C37.2098,11.7345 37.2378,12.4195 36.9278,13.0665 C36.8918,13.1415 36.9298,13.2925 36.9868,13.3655 C37.2388,13.6865 37.5098,13.9905 37.7748,14.3015 C38.1908,13.8695 38.5938,13.4515 39.0168,13.0125 C38.9188,12.9805 38.7878,12.9435 38.6628,12.8955 C37.9208,12.6095 37.4468,11.9685 37.4728,11.1795 C37.5198,9.7915 37.8828,8.4785 38.5228,7.2455 C38.6018,7.0925 38.7098,6.9475 38.8288,6.8215 C39.1578,6.4725 39.4888,6.4625 39.7928,6.8395 C40.0438,7.1515 40.2298,7.5165 40.4558,7.8755 C40.6728,7.4125 40.8668,6.9275 41.1198,6.4755 C41.3818,6.0075 41.6618,5.5385 42.0028,5.1265 C42.5448,4.4725 43.1228,4.5455 43.3558,5.3525 C43.6168,6.2535 43.7548,7.1975 43.8568,8.1325 C43.9218,8.7305 43.8248,9.3465 43.7998,9.9835 C44.0508,9.9725 44.3768,9.9375 44.7008,9.9465 C45.4768,9.9705 45.7418,10.3735 45.3918,11.0695 C44.7408,12.3625 43.7068,13.3245 42.5718,14.1885 C42.5058,14.2385 42.4328,14.2805 42.3558,14.3315 C43.9298,14.8745 45.6068,15.1665 46.6818,16.6555 C47.0068,16.3985 47.3558,16.0935 47.7338,15.8325 C48.0648,15.6035 48.4308,15.3045 48.8518,15.5045 C49.3098,15.7215 49.2618,16.2115 49.2528,16.6285 C49.2218,17.9135 48.8898,19.1345 48.3838,20.3065 C48.1468,20.8565 47.8478,21.0685 46.9948,21.4195 C47.0808,21.8175 47.1678,22.2235 47.2718,22.7075 C48.2798,22.1615 49.2418,21.6415 50.1978,21.1235 C49.6788,19.7175 49.8648,19.0555 51.1018,18.2235 C51.8128,17.7465 52.5838,17.3595 53.3368,16.9465 C53.5258,16.8435 53.7448,16.7915 53.9538,16.7325 C54.9778,16.4425 55.3658,16.8065 55.0838,17.8265 C54.7588,18.9955 54.1108,20.0005 53.4038,20.9695 C53.3198,21.0845 53.2328,21.1965 53.1368,21.3225 C53.8818,21.4075 54.6028,21.4605 55.3108,21.5825 C55.7048,21.6515 56.0998,21.7965 56.4568,21.9805 C56.8418,22.1795 56.9058,22.5195 56.6368,22.8615 C56.4248,23.1325 56.1738,23.4095 55.8788,23.5725 C55.0148,24.0495 54.1448,24.5345 53.2308,24.9005 C51.9148,25.4265 51.0598,25.0385 50.4328,23.7135 C49.9348,24.2465 49.4528,24.7625 48.8858,25.3705 C49.4558,25.6945 49.9738,26.0305 50.5258,26.2905 C50.9618,26.4965 51.3548,26.7245 51.5808,27.1595 C51.7108,27.4085 51.8598,27.4645 52.1428,27.4045 C52.4328,27.3435 52.7628,27.3285 53.0468,27.4005 C54.2558,27.7085 55.3868,28.2115 56.4028,28.9395 C56.7488,29.1885 57.1878,29.4555 57.0878,29.9695 C56.9938,30.4515 56.5148,30.5585 56.1168,30.6765 C54.9008,31.0375 53.6528,31.1375 52.3958,31.0155 C52.0348,30.9805 51.6888,30.7825 51.3158,30.6525 C51.1258,31.0575 50.9418,31.5325 50.6908,31.9695 C50.1478,32.9155 49.5988,32.9115 49.1008,31.9415 C48.4798,30.7325 48.1998,29.4215 48.1308,28.0715 C48.1158,27.7775 48.2358,27.4765 48.3048,27.1155 C47.8978,26.8855 47.4498,26.6255 46.9918,26.3825 C46.9228,26.3465 46.7888,26.3585 46.7228,26.4035 C45.8348,27.0135 44.9548,27.6335 44.1338,28.2085 C45.0408,28.7425 45.9678,29.2555 46.8548,29.8285 C47.2258,30.0695 47.5508,30.4085 47.8298,30.7575 C48.1808,31.1975 48.0588,31.5875 47.5428,31.8005 C47.2898,31.9045 47.0118,32.0045 46.7438,32.0055 C45.6258,32.0095 44.4988,32.0525 43.3908,31.9335 C42.3138,31.8175 41.8518,31.1825 41.7118,29.9345 C41.6048,29.9955 41.5068,30.0415 41.4198,30.1025 C39.6108,31.3585 37.8018,32.6115 35.9988,33.8755 C35.6048,34.1515 35.2218,34.4445 34.8598,34.7605 C33.4238,36.0125 32.6788,37.5255 32.8348,39.5005 C32.9758,41.2705 32.9448,43.0545 32.9698,44.8335 C33.0258,48.7705 33.0358,49.7095 33.1308,53.6455 C33.1908,56.0955 28.2258,55.3655 28.2828,53.8655 C28.4478,49.5545 28.6298,45.2435 28.8048,40.9325 C28.8208,40.5385 28.8578,40.1445 28.8408,39.7525 C28.8338,39.5845 28.7568,39.3795 28.6398,39.2605 C26.8538,37.4365 25.0578,35.6225 23.2568,33.8135 C23.1438,33.7005 22.9698,33.5795 22.8238,33.5785 C21.4828,33.5755 20.1408,33.5965 18.7988,33.6135 C18.7298,33.6145 18.6608,33.6345 18.5518,33.6515 C18.6898,34.6235 18.1738,35.2815 17.4808,35.8165 C16.7788,36.3575 16.0488,36.8675 15.3018,37.3445 C15.0178,37.5265 14.6598,37.6235 14.3218,37.6805 C13.9108,37.7505 13.6488,37.5365 13.6688,37.1235 C13.6918,36.6345 13.7488,36.1305 13.9008,35.6685 C14.1408,34.9385 14.4718,34.2385 14.7838,33.4785 C14.6618,33.4285 14.4998,33.3775 14.3528,33.2985 C13.5218,32.8505 12.6918,32.4005 11.8688,31.9375 C11.7208,31.8545 11.5968,31.7165 11.4818,31.5865 C11.0388,31.0925 11.1088,30.6945 11.7078,30.4125 C12.5858,29.9995 13.5408,29.9605 14.4858,29.9125 C14.9498,29.8895 15.4188,29.9285 15.8828,29.9685 C16.5588,30.0275 17.0438,30.3825 17.3768,30.9735 C17.4378,31.0825 17.6098,31.2175 17.7088,31.2015 C18.6418,31.0525 19.5698,30.8725 20.6158,30.6805" id="Fill-5" fill="#FFFFFF"></path>
            </g>
        </g>
    </g>
</svg>