<svg xmlns="http://www.w3.org/2000/svg" width="11" height="11" viewBox="0 0 11 11">
  <defs>
    <style>
      .cls-1 {
        fill: #dc143c;
      }
    </style>
  </defs>
  <path id="times-svg" class="cls-1" d="M18.094,8l3.125,3.125a.935.935,0,0,1,.281.687,1.043,1.043,0,0,1-.281.719l-.687.687a1.043,1.043,0,0,1-.719.281.935.935,0,0,1-.687-.281L16,10.094l-3.125,3.125a.935.935,0,0,1-.687.281,1.043,1.043,0,0,1-.719-.281l-.687-.687a1.043,1.043,0,0,1-.281-.719.935.935,0,0,1,.281-.687L13.906,8,10.781,4.875a.935.935,0,0,1-.281-.687,1.043,1.043,0,0,1,.281-.719l.687-.687a1.043,1.043,0,0,1,.719-.281.935.935,0,0,1,.687.281L16,5.906l3.125-3.125a.935.935,0,0,1,.687-.281,1.043,1.043,0,0,1,.719.281l.687.687a1.043,1.043,0,0,1,.281.719.935.935,0,0,1-.281.687Z" transform="translate(-10.5 -2.5)"/>
</svg>
